<mxfile host="app.diagrams.net" modified="2023-09-20T13:26:31.545Z" agent="Mozilla/5.0 (Windows NT 10.0; Win64; x64) AppleWebKit/537.36 (KHTML, like Gecko) Chrome/116.0.0.0 Safari/537.36" etag="o9WaOn0B_vce_oT5KRbw" version="21.7.5" type="github">
  <diagram name="Page-1" id="2ktoe9ZAZRzfxQQ3-Ry_">
    <mxGraphModel dx="2359" dy="832" grid="1" gridSize="10" guides="1" tooltips="1" connect="1" arrows="1" fold="1" page="1" pageScale="1" pageWidth="850" pageHeight="1100" math="0" shadow="0">
      <root>
        <mxCell id="0" />
        <mxCell id="1" parent="0" />
        <mxCell id="DmJEvaMp0UlZqBuKeToC-28" value="" style="rounded=1;whiteSpace=wrap;html=1;arcSize=7;dashed=1;fillColor=none;strokeColor=#4DACFF;" parent="1" vertex="1">
          <mxGeometry x="20" y="140" width="790" height="430" as="geometry" />
        </mxCell>
        <mxCell id="DmJEvaMp0UlZqBuKeToC-20" value="&lt;p style=&quot;line-height: 120%;&quot;&gt;&lt;br&gt;&lt;/p&gt;" style="rounded=1;whiteSpace=wrap;html=1;fillColor=#dae8fc;strokeColor=none;glass=0;shadow=0;" parent="1" vertex="1">
          <mxGeometry x="360" y="152" width="120" height="188" as="geometry" />
        </mxCell>
        <mxCell id="DmJEvaMp0UlZqBuKeToC-18" value="&lt;p style=&quot;line-height: 120%;&quot;&gt;&lt;br&gt;&lt;/p&gt;" style="rounded=1;whiteSpace=wrap;html=1;fillColor=#d5e8d4;strokeColor=none;glass=0;shadow=0;" parent="1" vertex="1">
          <mxGeometry x="200" y="152" width="120" height="188" as="geometry" />
        </mxCell>
        <mxCell id="DmJEvaMp0UlZqBuKeToC-16" value="&lt;p style=&quot;line-height: 120%;&quot;&gt;&lt;br&gt;&lt;/p&gt;" style="rounded=1;whiteSpace=wrap;html=1;fillColor=#f8cecc;strokeColor=none;glass=0;shadow=0;" parent="1" vertex="1">
          <mxGeometry x="40" y="152" width="120" height="188" as="geometry" />
        </mxCell>
        <mxCell id="DmJEvaMp0UlZqBuKeToC-4" style="edgeStyle=orthogonalEdgeStyle;rounded=0;orthogonalLoop=1;jettySize=auto;html=1;entryX=0.75;entryY=0;entryDx=0;entryDy=0;startArrow=none;startFill=0;exitX=0.72;exitY=0.997;exitDx=0;exitDy=0;exitPerimeter=0;strokeColor=#4DACFF;" parent="1" source="DmJEvaMp0UlZqBuKeToC-1" target="DmJEvaMp0UlZqBuKeToC-3" edge="1">
          <mxGeometry relative="1" as="geometry" />
        </mxCell>
        <mxCell id="DmJEvaMp0UlZqBuKeToC-5" value="Request" style="edgeLabel;html=1;align=center;verticalAlign=middle;resizable=0;points=[];rotation=90;" parent="DmJEvaMp0UlZqBuKeToC-4" vertex="1" connectable="0">
          <mxGeometry x="-0.7353" y="1" relative="1" as="geometry">
            <mxPoint x="12" y="38" as="offset" />
          </mxGeometry>
        </mxCell>
        <mxCell id="DmJEvaMp0UlZqBuKeToC-25" style="edgeStyle=orthogonalEdgeStyle;rounded=0;orthogonalLoop=1;jettySize=auto;html=1;entryX=0.5;entryY=1;entryDx=0;entryDy=0;strokeColor=#4DACFF;" parent="1" source="DmJEvaMp0UlZqBuKeToC-1" target="DmJEvaMp0UlZqBuKeToC-2" edge="1">
          <mxGeometry relative="1" as="geometry">
            <Array as="points">
              <mxPoint x="540" y="270" />
              <mxPoint x="540" y="370" />
              <mxPoint x="-61" y="370" />
            </Array>
          </mxGeometry>
        </mxCell>
        <mxCell id="DmJEvaMp0UlZqBuKeToC-27" value="Resonse&amp;nbsp;" style="edgeLabel;html=1;align=center;verticalAlign=middle;resizable=0;points=[];" parent="DmJEvaMp0UlZqBuKeToC-25" vertex="1" connectable="0">
          <mxGeometry x="0.5375" y="-1" relative="1" as="geometry">
            <mxPoint x="-53" y="1" as="offset" />
          </mxGeometry>
        </mxCell>
        <mxCell id="DmJEvaMp0UlZqBuKeToC-1" value="&lt;b&gt;Azure WebApp&lt;/b&gt;" style="image;aspect=fixed;html=1;points=[];align=center;fontSize=12;image=img/lib/azure2/app_services/App_Services.svg;labelPosition=center;verticalLabelPosition=top;verticalAlign=bottom;" parent="1" vertex="1">
          <mxGeometry x="586" y="216" width="64" height="64" as="geometry" />
        </mxCell>
        <mxCell id="DmJEvaMp0UlZqBuKeToC-11" style="edgeStyle=orthogonalEdgeStyle;rounded=0;orthogonalLoop=1;jettySize=auto;html=1;entryX=0;entryY=0.5;entryDx=0;entryDy=0;" parent="1" source="DmJEvaMp0UlZqBuKeToC-2" target="DmJEvaMp0UlZqBuKeToC-10" edge="1">
          <mxGeometry relative="1" as="geometry" />
        </mxCell>
        <mxCell id="DmJEvaMp0UlZqBuKeToC-2" value="&lt;b&gt;Users&lt;/b&gt;" style="shape=image;html=1;verticalAlign=bottom;verticalLabelPosition=top;labelBackgroundColor=#ffffff;imageAspect=0;aspect=fixed;image=https://cdn2.iconfinder.com/data/icons/user-interface-169/32/about-128.png;labelPosition=center;align=center;" parent="1" vertex="1">
          <mxGeometry x="-90" y="223" width="58" height="58" as="geometry" />
        </mxCell>
        <mxCell id="DmJEvaMp0UlZqBuKeToC-6" style="edgeStyle=orthogonalEdgeStyle;rounded=0;orthogonalLoop=1;jettySize=auto;html=1;exitX=0.25;exitY=0;exitDx=0;exitDy=0;entryX=0.281;entryY=0.969;entryDx=0;entryDy=0;entryPerimeter=0;strokeColor=#4DACFF;" parent="1" source="DmJEvaMp0UlZqBuKeToC-3" target="DmJEvaMp0UlZqBuKeToC-1" edge="1">
          <mxGeometry relative="1" as="geometry">
            <mxPoint x="604" y="326" as="targetPoint" />
          </mxGeometry>
        </mxCell>
        <mxCell id="DmJEvaMp0UlZqBuKeToC-8" value="Response" style="edgeLabel;html=1;align=center;verticalAlign=middle;resizable=0;points=[];rotation=270;" parent="DmJEvaMp0UlZqBuKeToC-6" vertex="1" connectable="0">
          <mxGeometry x="0.1966" relative="1" as="geometry">
            <mxPoint x="-14" y="3" as="offset" />
          </mxGeometry>
        </mxCell>
        <mxCell id="DmJEvaMp0UlZqBuKeToC-3" value="Azure OpenAI" style="shape=image;verticalLabelPosition=bottom;labelBackgroundColor=default;verticalAlign=top;aspect=fixed;imageAspect=0;image=data:image/png,iVBORw0KGgoAAAANSUhEUgAAADgAAAA6CAYAAADlTpoVAAAAAXNSR0IArs4c6QAAAARnQU1BAACxjwv8YQUAAAAJcEhZcwAADsMAAA7DAcdvqGQAAAupSURBVGhD7ZoJdE3nFsd3wlJjzDzEUGJeRc2e4VG0hogpIeYoCUpIhCIhEUHMCaElihiSmBMR81BDl65qPWoonnmIoYairbnxvv++38k995xzb+4V3lus/rKsfPu7h3X3N+z93/tweiWg9xhn+fu95W8H33XeewffSpB5+vQpHTiwn06eOEl3796hh48eUbGixci1tCuVKuVKNWrUoJIlS8qn3y5v1MELFy7Q0qVLaPu2bXLGOp980pJ69OxJtWvXljNvhzfi4F9//UXLli2lxbGx9PLlSzlrH55eXjR27DhycnKSM2+WN+Kgn58vHfnpJ2mZyJcvH33Wpg1VqlSJj+PNmzfp4sWLdOzoUTp9+rR8yoR7hw4UHj6Jx1euXKE///yTihYtyn+ySpYdHDPmS9q9a5e0iPLmzUuBgSOpU+fOckbPvn37aG50FF29elXOEJUtW5Z+/fVXevLkiZwhyp0nD3kI57t796AyZcrIWcfIkoMxMfMobtkyaRE1avRPmhgeTkWKFJEz1jl8+DANGTxIWpnTtasnjQgIoDzCaUd4bQdx3Lw8u0qLqGGjRjRvXgxly5ZNzhiDozpn9mzau3ePnLEfLNyECaHUpGlTOZM5r+3gtGmRtG7tWh6XK1eO4hMSKWfOnGwbgdSxeHGsxY4rVK5cmXr27EVVq1Wj4sWL0/Pnz+n0L7/QyVMnKWXTJrp165Z80sSkiAhq395dWrZx2EEEgIMHD9LUKZN5DBAgECiskbp5Mx/nu3fvyhkTFStWpJFBo6h+/fpyxpgffviBd/38+XNyhmjlqniqJhYkM+x28PLlyxQdFSWcOyBnTBQqXJh27dotLUsQLaeLnT5x4oScMVGwYEHyHz6cOnbsJGcyB4sZGBiQEa2x06viE6hQoUJsW8MuqYbV69qls845UPvjj+XIzP379yksdAL17tVT59znAwbQ5tQtDjkHEFxiYxdT9erV2b59+7ZY8Dk8tkWmDgaPG0vx8aukpaeA2A01N27coC6dO1FqaqqcMdGqVStK3bKVhg4dRrly5ZKzZo4e/Tdt3LiBHstjb42QkPFyRLRlyxZ21BY2HRw/PoR27NghLRP9P/+cPD09pSXyXp68cmTi+M8/0++//y4tovLly1Ps4m9o+oyZVKJECTlrJi3tOgWK8D9Q7OyUyZOpY6eOlJycLD/VU7lKFWrQsKG0iHbvNudgI6w6mJKyibZt3Sotorr16tH2HTtp2DB/kczzyVk96a/S+Td2aVxwCK1bv4Hq1KnDc2pwp6JFskcihzBXuH/vHkVMCqdeQqdqj7dC48aN5Yh0CkqLoYOPhPqfFhkpLWK5FRUV7ZB0cnV1tdhpNdihTmKnVq5YwTZ2VhuFz5w5TT79+lLohPG66Nu4cRM5Eg4eOSJHxhg6uFWc7WfPnvG4sIiS8xd8Rblz52Y7K5w8eYJ3BjuEnXJxcaExY8fy3USqWSPyap26deXTJnDPPDq405Il38gZEqWXeaH/+OMPevz4sbT0GDqIy67g5dWNnbQXo6yDHRgnHOnXty/vDGjZsiVtStlM3bp1Zxu4uVXkSDl7ThTXjQpY7K8WLKAO7u1Zx94TUVqNrcXXOXj8+HGu6xTatmsnR/ahlD3Kb6w8dmDnTstg9d1339H6deukZUnz5s0pRYgDiHa19kSEDhoZSKOCguSMSb7ZQufgL6dOyRFxzsFdcgRlB+/cucMrjpXHDpQuXZoWiKMeFR0tdqcUzy1YMJ+dt6ZLe/fpw7uszZlqRfPRRzXkyBidg8+em+4ecNQ5Nb/99huvOOrC0aO/pORNKSzImzX7l9idVAocadqdtLQ0Gj1qFFcWly5dkn/bDFRPaFgYJSSuplq19KICAdAWOgdfPH8hR0QPHj6UI0vU90x7516lm2xnZ2cucVLEDnj36MFzanr37sOOom7EsyifunfzolmzZnLg0AJBvmTpUpGbJ1iI+qSkjY4FGXW588iKg+r2gq7VIG03NzcKDgkhl/z52TaiQIECXP6UL1+BbbQ+EhMS+GivX7+e57R07tKFEkTlAi0KUCTHzJvHYyN0DtasVUuOTHrPYezT7hYoa+Th0ZG/OPJw5NQp1LOHN0s4LWVFeTZVlafXrl1Dx44dlZYlOgfR5VKOAESzWs0ouOR3kSOiUyIo4Qsp2FmcGNK4SRPaum07VxoI/WfPnmUJFxISrDuGuI8IQgqKaNCicxDUUlUIaANqQW5s07Ytj3/88bAoPtvx0XpT+Pj05+Rfs2ZNttGGTIiP57Ea7LjCT1Ykm6GDPj4+cmRqTXz77V5pmcDqTpkylS89ohgqAASHjh4d2GFH0d1jQX5xd6vJ0gjcE8pHS4UKFfi4AgQm7LgWQwfr1asvtKI590wUYdpI1OKYJK5ew6Iasuv69essrRwlXUZeLa/STcIdKCJeS0URzBRQyWgxdBAEjgziah1gdYYMGUyrExPZ1gJRjSLW29s7IwqfP3+eIiIm0YMHD9g2Ap/hmYsXzcpJjT3XWR31nUS60WLVQfQ326lkGkL4zJkzOCGrpZwCnh/95RhavWYtn4B0sfrJSUl8bFcsXy6fMoM5fIZn8KwRTs420pEBeQw0qVUHwZkzZ+TIDBJyNy9PioycSg8N8iQK3IWLFmUUuNj9uXOjqbMoj9DyOHToEI8xh88gqq31VSzyrfgxAidFIU9efc/UpoMnhPBWwBdXA6GMhJyQoI9uQGlRDBo0mG10sQNGjCD/YUN5jFT0xdChLKqtVSsWikn8aEHqUJ+mKlWqypEZqw4iByo1IZgsoub06TOoWLFicsZUlc+eNYt3ZP9+c1Wupru4lyiN1Li7u7OIHjBgoJx5PbaqcjR0rvq7KVh1MLumQ43j0qp1a/5igwcPsdCD2JGRgQF8P9FeBC9evKDly+O4Wtizx1QtVK1alVt94ZMiLMqcdCvRRNG1QCsg0BxetGihtMgiXqix6iA0pNqJbDJC5ciRg3z9/GhjUjK1adOG5xRwP9FeDAsL5V2dN3cu3zNE44kTw9k5OKlF+be1OGczzzs7WT4TFhrKXQGAqqRVq9Y81mLVQYAOloK2AQTNOGVqJC1dFscdajXoZOMdBPDp358rig4eHmxrgai+du2atCyxdgcnT46wKKBHjR5NH3zwgbQssemgujWeaCUHQk4hNYRNnJiRNwHqPhxnf//hhn1QKJ5uojyCqFZemWVT7RijchBRFIK6v08/Stq4Uc6a3hSrJZsWm617KHmIXYXZs+dQ8xYtpKUHkm3Dhg3kVtGNX6UZgT4oOuXoraiBNEOLUR1REXGRVgAKZ3W/FTRt2owip00zXECFTN9NoP2uvJHFnYxbvkJ3JO0BzscujjVU/SiMkTJQH6pp0aK51ZoUrwDQJc+MTB1E39HP1xzOcfdWrFxl10tOBRyp+fNjdLINteeYMWO5WteCWrRdW8sgBnCCRowIsPuNr11vl1AKoVpQwEr7DRpE3bt7yxljvv/+EB9HVCRqihf/h7ib/jY7dmhWKb1Q9GXQP0XD19H+rF0Oggnjx4vEalkpoDvm5zdIBJRmnFYgDNBoOnfuPxQXF0dnDaQecmg/UY4h3VjjisilXUS6UQgICKQ+fftKyzHsdhCCePXqRFr49dcZLz4dATlzuDhaSi/FFoiU6M8CBB+8E7G1ILawmSbUoPOF18xJyZsyqnl7QWGMnGmPc5B+inNgoK/vazsH7N5BLTiKqPQPHjgoRMBxfgdvjQqiKA0KGkUNGjSQM3rQzA0ODqYLqurg008/4zSQFV7bQS34gg8fPOSSJV8+FxruPyxDlypAFOA/GnxY7kMq5VqKFyntehoHIe3bYyRviIes8sYc1IJaccRwf6vv+GwxcKAvDfniC2lljbfmIOCqPjmJ5sfEGBbHarJnz85dbl9fP4dybGa8VQcVUNpAcu3ZvZtTCF6n4d0FtC46Z0j0kHZGr7izyv/Ewf8ndqeJd5W/HXzXec8dJPov9Z3+zCr2ojEAAAAASUVORK5CYII=;fontStyle=1" parent="1" vertex="1">
          <mxGeometry x="590" y="416" width="56" height="58" as="geometry" />
        </mxCell>
        <mxCell id="DmJEvaMp0UlZqBuKeToC-14" style="edgeStyle=orthogonalEdgeStyle;rounded=0;orthogonalLoop=1;jettySize=auto;html=1;entryX=-0.06;entryY=0.561;entryDx=0;entryDy=0;entryPerimeter=0;strokeColor=#4DACFF;" parent="1" source="DmJEvaMp0UlZqBuKeToC-9" target="DmJEvaMp0UlZqBuKeToC-13" edge="1">
          <mxGeometry relative="1" as="geometry" />
        </mxCell>
        <mxCell id="DmJEvaMp0UlZqBuKeToC-9" value="&lt;b&gt;App Gateway&lt;/b&gt;" style="image;aspect=fixed;html=1;points=[];align=center;fontSize=12;image=img/lib/azure2/networking/Application_Gateways.svg;labelBackgroundColor=none;" parent="1" vertex="1">
          <mxGeometry x="229" y="220" width="64" height="64" as="geometry" />
        </mxCell>
        <mxCell id="DmJEvaMp0UlZqBuKeToC-12" value="" style="edgeStyle=orthogonalEdgeStyle;rounded=0;orthogonalLoop=1;jettySize=auto;html=1;strokeColor=#4DACFF;" parent="1" source="DmJEvaMp0UlZqBuKeToC-10" target="DmJEvaMp0UlZqBuKeToC-9" edge="1">
          <mxGeometry relative="1" as="geometry" />
        </mxCell>
        <mxCell id="DmJEvaMp0UlZqBuKeToC-10" value="&lt;b&gt;Firewall&lt;/b&gt;" style="image;html=1;image=img/lib/clip_art/networking/Firewall_02_128x128.png;labelBackgroundColor=none;" parent="1" vertex="1">
          <mxGeometry x="60" y="212" width="80" height="80" as="geometry" />
        </mxCell>
        <mxCell id="DmJEvaMp0UlZqBuKeToC-15" style="edgeStyle=orthogonalEdgeStyle;rounded=0;orthogonalLoop=1;jettySize=auto;html=1;entryX=-0.044;entryY=0.491;entryDx=0;entryDy=0;entryPerimeter=0;strokeColor=#4DACFF;" parent="1" source="DmJEvaMp0UlZqBuKeToC-13" target="DmJEvaMp0UlZqBuKeToC-1" edge="1">
          <mxGeometry relative="1" as="geometry" />
        </mxCell>
        <mxCell id="DmJEvaMp0UlZqBuKeToC-13" value="&lt;b&gt;Azure &lt;br&gt;Active Directory&lt;/b&gt;" style="image;aspect=fixed;html=1;points=[];align=center;fontSize=12;image=img/lib/azure2/identity/Azure_Active_Directory.svg;labelBackgroundColor=none;" parent="1" vertex="1">
          <mxGeometry x="385" y="216" width="70" height="64" as="geometry" />
        </mxCell>
        <mxCell id="DmJEvaMp0UlZqBuKeToC-17" value="&lt;b&gt;&lt;font color=&quot;#666666&quot;&gt;Security&lt;/font&gt;&lt;/b&gt;" style="text;html=1;align=center;verticalAlign=middle;resizable=0;points=[];autosize=1;strokeColor=none;fillColor=none;" parent="1" vertex="1">
          <mxGeometry x="65" y="152" width="70" height="30" as="geometry" />
        </mxCell>
        <mxCell id="DmJEvaMp0UlZqBuKeToC-19" value="&lt;b&gt;&lt;font color=&quot;#666666&quot;&gt;Routing&lt;/font&gt;&lt;/b&gt;" style="text;html=1;align=center;verticalAlign=middle;resizable=0;points=[];autosize=1;strokeColor=none;fillColor=none;" parent="1" vertex="1">
          <mxGeometry x="225" y="152" width="70" height="30" as="geometry" />
        </mxCell>
        <mxCell id="DmJEvaMp0UlZqBuKeToC-21" value="&lt;b&gt;&lt;font color=&quot;#666666&quot;&gt;Authentication&lt;/font&gt;&lt;/b&gt;" style="text;html=1;align=center;verticalAlign=middle;resizable=0;points=[];autosize=1;strokeColor=none;fillColor=none;" parent="1" vertex="1">
          <mxGeometry x="365" y="152" width="110" height="30" as="geometry" />
        </mxCell>
        <mxCell id="DmJEvaMp0UlZqBuKeToC-24" value="&lt;i&gt;Python based application &lt;br&gt;using below key libraries&lt;br&gt;openai, streamlit,&lt;br&gt;sklearn, cosine_similarity&lt;/i&gt;" style="text;html=1;align=center;verticalAlign=middle;resizable=0;points=[];autosize=1;strokeColor=none;fillColor=none;" parent="1" vertex="1">
          <mxGeometry x="652" y="209" width="160" height="70" as="geometry" />
        </mxCell>
        <mxCell id="DmJEvaMp0UlZqBuKeToC-26" value="Chat" style="text;html=1;align=center;verticalAlign=middle;resizable=0;points=[];autosize=1;strokeColor=none;fillColor=none;" parent="1" vertex="1">
          <mxGeometry x="-35" y="223" width="50" height="30" as="geometry" />
        </mxCell>
        <mxCell id="DmJEvaMp0UlZqBuKeToC-29" value="" style="shape=image;verticalLabelPosition=bottom;labelBackgroundColor=default;verticalAlign=top;aspect=fixed;imageAspect=0;image=data:image/png,iVBORw0KGgoAAAANSUhEUgAAAyAAAAMgCAYAAADbcAZoAAAABGdBTUEAALGPC/xhBQAAACBjSFJNAAB6JgAAgIQAAPoAAACA6AAAdTAAAOpgAAA6mAAAF3CculE8AAAABmJLR0QA/wD/AP+gvaeTAACAAElEQVR42u39ebglVZ3nC39X7DPlnMkMCpQiimQiyCCTTIoCIpgmnANtVVlYT7fVk9Xe7r5d3ue+73Pzffu+ClZ1eUvb6kbbsrQGMRMRRSlnrHK2RCDJRFEEGXKezjzuHev9I8+w9z57iNg7hhURn8/zoHnOjh2xdgwrfp+zvnuFBAAAAAAAAAAAAAAAAAAAAAAAAAAAAAAAAAAAAAAAAAAAAAAAAAAAAAAAAAAAAAAAAAAAAAAAAAAAAAAAAAAAAAAAAAAAAAAAAAAAAAAAAAAAAAAAAAAAAAAAAAAAAAAAAAAAAAAAAAAAAAAAAAAAAAAAAAAAAAAAAAAAAAAAAAAAAAAAAAAAAAAAAAAAAAAAAAAAAAAAAAAAAAAAAAAAAAAAAAAAAAAAAAAAAAAAAAAAAAAAAAAAAAAAAAAAAAAAAAAAAAAAAAAAAAAAAAAAAAAAAAAAAAAAAAAAAAAAAAAAAAAAAAAAAAAAAAAAAAAAAAAAAAAAAAAAAAAAAAAAAAAAAAAAAAAAAAAAAAAAAAAAAAAAAAAAAAAAAAAAAAAAAAAAAAAAAAAAAAAAAAAAAAAAAAAAAAAAAAAAAAAAAAAAAAAAAAAAAAAAAAAAAADFxbALAKBT1t38oQ3G1++oUj7TyJ5mfb9Pnrf62Ku+JKl39cp+9fSW+k9Yt6r/hOPX9R23YV1p1cCqmhVZf7EvstY3snUbqnpd1h77ty171rf0YVA4vN7SyKpX/c5jveuPn1z2YiWebVrPDHu+KtZov/Ht8/09s89/6+LjRjgaAICAAECsrL/pQ683lfKNsrrMGl0o6eWyC7Zgq/6v2iCsrK39uXf1Kg287GStfPmpWv2a39GK00+TMR47GKAjO0hru/7zMuZRY+yPVfG+/r3LVu/gYAAAAgIAXbPubf/3xV5Ff2Ct2SJjT1smGHVyEURAapaxVqUV/Vp77tnacNHrtOqVZ0geXROAs+Ixv2Fb9ysjvWSN7veN99kfXbLqMQ4QACAgABCci+7tXX/SoX9hfP0nK/O6Y6WGrSt6bAsBqV5wvlhpNlJibc3/961fp+OvfoOOe8OF8vp7ORYADktHCx63xvy3GW/V5x+92Mxx4AAAAQGAxmzd6q3/Se9dxvf+Lyt7xvJKo5FgVEtI8BjW0jJ26f3WX1y2tHKFTrrmch1/zWXyeno4NoB0pLhh23Fb7PPWaOsPL1nzWRnjczABAAEBgEU23PDBq+Tpo9aaC2qlok5AGglGBDGsY7/zF3+282LSu2GtTnv7W7Xugo0cJEA8EtywjbYtj3ue/fffu2TtDziwAICAABSclw/++YqJ8dmtsvpPki0t+YVtUJQkE8NaFBa7tM21556tl91+i3rXreWgAdKRDelYthFr9Mm+ian/9N3rThrnYAMgIABQQE648Z7XVGS/IKON1SMSS/7QZBQkoRjW0nqPjY70rFqpM35vUKtfcxYHD5COCDdsk23Lr6yn2354yZqdHHwABAQACsS6t334Ns/aT0t2TX0F0lZAGglGjDGs6tERI6OTb7leJ113FQcREI8uNmzTbcuYjO76wRvWPMCJAFA8mHgfoIBseNuH/51n7TZJaxr9HaLxXyZMwN81f90Y0+Bl0/g9y349//xB62vfl7+u3fc/JPmWgwnZkw6bRsE/H22c/wODTbUtkqQ1srr/ip+M/0dOCgAEBAByzvqb/vT/Lav/vuz6b+gXIaSjoVy0+kWT5Zetx1S/uPjz4e//RC/83XZZy8Q6gHS027Aj0rG817D2v73xR2P/L04SAAQEAPIqH2/70z82sv/fNjVBwNIhgnUse4+p+dm0Wo+Rhh99Qi/+/RcafGEewCHxSGnDNa7hjnQskyBr9F+v/Mno/84JA4CAAEDu5OPPft/I/j+Na/psxbCqheXoTx/T3q98jQMMThbXyUuHo6Md7dpizT1X/Hj89ziBABAQAMiLfNz0315vZO+tLelNQL9wNYa1JDQHvvldDf/sMQ40FFI6HI5YhWmLMbKfvPyHI2/ghAJAQAAg46x55wePN8b/kqQVwaNR2YlhLZQuL3zufk3v2csBBxeL61g2nJWIVQgGPM+7//IfjhzHyQWAgABAhumZ6fu4pNPbu0F2Y1iSJzs7pxc++/ey5TIHHVwsriOSjoxGrIJzuud5n+REA0BAACCjHHfTh++Q7B1BxaC5X7gfw5Ixmnppr/Z97ZsceMiVdOQkYhWGLVf+aGyIEw8AAQGAjHHitR9fbWX+PLA4dLqcQzEsGaMD3/yOZg4e5AQAV4vrwBvOYcQqTDfw5299Yt8qTkIABAQAMkR5xeQHZHRaODdwJIZl6t4TMIYlGalS0Z4HvswJAO4W1y2lI/cRq6C8bGJq1Z9wQgIgIACQEda884PHy9N/CLa0gzGsputpH8OSPI088aQmn3uOEwEyIR0FjFgF5T9d9U9jJ3KCAiAgAJABeqZ7/zdZrQ4lHd0sF2sM69i/w8SwZIz2f+PbnAjgaHFNxCogK/0evY8TFQABAQDHOfmtf7pKRv+uc3FwLYbVZNXNYljGyBijkR07NbNvPycEOFJcE7HqqC1G//6in9mVnLgACAgAOMxMr7ldMuvDjTxkI4ZlFmNXLWJYCyJipcM//BEnBBCxCtJEd9uyYcXsxO2cxAAICAA4jLH2PbVFvVFnoxUhl0sghhVo+1UxrCM//mfZSoWToujikdKGiVhF0xZrqvs0AEBAAMApNtxy9xmSubp1Qd9uZKLxL92LYZm2Mazy+LjGfvFLTowiSgcRq0xLRx3XvPH7U2dwcgMgIADgIMbvHVKg4YZGMpK1GFZjEamJYclo+OePcWIgHbFvmIhVrG0x6qkMcqIDICAA4CC+7GCQtFJjETFtlgu4um7X0bB9UqcxrOHHdsgvz3Fy5Fk8UtowEasE22LFk9EBEBAAcI11t/zpK4x0SUO3CCwOrYUkizEsf2ZG48Sw8icdRKzyLx01q/TfcMUPhs/iAgBAQADApYvZ11BLRwgkIw2K+UaRq6zFsH5GDAvp6G7DRKzSaEvtzvY8j9mwABAQAHDscg4WUVgmI0GHSDwF/npJZy82WTSCGNYTT8qfm+UUyap4pLRhIlZptKX5Cn0ZvgcCgIAAgCusu/kjr5TshaHf2PYrII1iWAG/wN5VDMvU/n9XMSxP/uysxnb9ghMlS9JBxArpWOah9qJLfzxyNhcJAAICAE5cyJU7u17JoleEmQ2rXkaiimGp7XpaxrBMdQzr2H/MhoV0tNowEas02tJeOupf7bGMggAgIADgCl3OEGOayEgYUah6U9oxrGphmf9vZMcu+TMznCkuikdKGyZilUZbmq+w7aasZMVsWAAICACkzglv+2+vlnR+JCtrNtJRV/O3nw2r+kvgwTcYdwxrlBhWgYtrIlYuSkcg96tewOr8y3409louJAAEBABSpGx0R/RrbRLDWpa4CvLdj4VREa/NJhKIYT36c06YAkoHEau02hI+YhVkAWPFbFgACAgApImJLJJgwi3Xbmrfpl9qDzIyUr+eRt81CRvD8jS68yn508yGlf/imohVem3pLmIVpC1GlhgWAAICAGlx/C1/do6kTeGeOtiJh7R5KKFR7cMDA4lNYxlpHMNqsqqwDyWcm9Porp2cOLksrh0f7ch9WyKKWAVj01U/HjuXiw0AAQGANOoIa+5sXth3KyNhZsOq33Sz7200E4o2s2ipuWiEimEZT0d/Rgwrz9JhiVgl2Jb4RzuaUan4jIIAICAAkI6AaLC9RISRkaiXa7Vos+GMY18aX/5So2ePhIxhyWhs5y/kT09z8mS6uCZilV5b0pOOumv6Ti5AAAQEABJmw9v+/DxJIWIIIWSkkxhW/W9rRkZMm02bFu31gnnLwg/tYliVikZ2EMPKXnFNxCrdtiQasQrCay7/4fh5XJAACAgAJIjxuokgBJWRDmJYbXsdE+jZha3b200Mi4cSZlk6iFgl2RZHRjua9QqmQgwLAAEBgERrDWsimooy4NPMA5lI6AqizoOqpKLh90UWRkS6mA1LRmNP/UKVKWJY7hbXRKzSa4vb0lGDbxAQAAQEAJJi/ds+coGkc6Jfc1VBH3UMq50otIxpNZORpVGNmhcbxbBMVQyr7Gtkxw5OJKeKayJW6bbFuYhVkO7q1Vf8YPwCLloABAQAErnvxj0DTKOnDrZxiTAxLBNget22gxum7unsXt3DDutiWCKGlQXpIGKVZFsyNNrRrBmG2bAAEBAASMpABuMXkCA2YAKuQyGWq4thLXOhdrNhtZCnmhjW06pMTiIeRKycLa7jaUv2paO6LcbqDllrBAAICADEx7q3/fnFVnpVQqLT4BfeshdaD1SEiGG1E5qGMtLGY4w332avJoZlK75GdjxZXOkgYlUg6WhteM5GrIK15ZVv/P7IhdwZABAQAIj1orWDyddLpolY1I0yRBbDCvHFcq/6XdXf/zDLBMWoWkaMhn9WkBgWEausFtexHfgsjnY0a4vvecSwABAQAIj1XlzSbcnUCmEiVM1iWp3EsOpGV5rNhrXsOSOm4Wxay948PwoieRp7+leqTEzkXzxS2jARqzTaUgzpqLuu7ySGBYCAAEBMrH3bn14qq7NafS0j8hoi9GxYTb57EVpKgjbGtPchUz27l6mJYQ0/9kQ+pYOIVYGko7XhZTxiFeRNZ7zx+6Nv4A4BgIAAQBwXrNcz1LLgjrXOCTsbVoBndUQRw1o2G1b17Ff1IyULs2HNf4/FeBp+7HGkI0LpIGKVZFuKONrRGN8zgwIABAQAIr9LG8ne1tI6IpeRKB9K2G5u3S5jWA2f/9Fg04txrWO/GH/61yqPjmVbPFLaMBGrNNqCdDRZ4RAxLAAEBAAi5rib//xySWcGLuyjlJGwMSzT7Evr1V1PiGeMtF0gjAAtSYjxjKxvNfJEhh5KSMSqgMV1a8PLf8QqUCd1+uU/GrucOwUAAgIAEeIbE2Cml7hlJKwwBBAD00JGooph1c+GZczSdo3n/kMJXYpYFaagdaEtjHaEUhBrmA0LAAEBgMjYutWTdHvI23HHMtKxBETSJZmG64skhlW/3Px/Y79+RnMjo+6KR0obbigdjHbE3Bako4uNDsla6hoABAQAomDDP6+9UtLLOl9DOBlpWDtEHsNqISym3RfYI4hhzY9+GGMkK3diWESsClpcE7GKgFOv/MHYldwxABAQAIjinm4UYbSgWxmJI4bVSkxaPWekbrmwMazFdXoafvTnBS2uiVil1xZGO6LGFzEsAAQEALpn61ZPMlviWXlQGTEB6wwTVDk6a62pk5FlMSyj8DGsYw8mHP/Ns5obHilIcb0gHYx2JN8WpCPO9niytw9usyVuHAAICAB0wfqfrbtasqfFv6UAMmIa1R9BolTNfhfyvUEaFvhzLknIQgwrkYcSErEqaHFNxCqJ42SlU/aeOn4Vdw4ABAQAurnHRhq/ikpGzPI6wCzUAR1+P6NtDCtgm6tiV6FjWI/FFMNiFquCFteMdqTRFt/4xLAAEBAA6JjBbSVj7ZZ0G7FUoAdxlLjrlPazYVU96bzRjFotYlgTv/mtZo8czUFxzSxW6bUF6UhXDq0k3X7tI7aHGwgAAgIAHbBucvd1kk52p0Vm+UjCMStoLiPGLK8bmn5Hw7RYrpkctfq5WZubxLAkjTzeZQyLiFXOCtruV0jEKu5zZtmCJ86URq7hDgKAgABAJxeoZwfd7j6Wx5oWI1rLZMSErG06iWHVLboQw1r8vaeaZ400iGEdfbSDhxIyi1XOCtruV8hoR+LSUdsFlDxiWAAICACE5tqtPdZqs1uNMi1+v3wIxIR5zkiYVgSKYTUb8ahavvp7I/MxrMnfPq/ZI4cdL66ZxQrpyNExCnUtBVzQ2i0X/cz2ciMBQEAAIARrV61/s2ROCj/LU1oeYppbR3VEy1TbydJMWla1v1ezn9s2xgRss6ntCo2RMce6xOGfP+Fg4UbEKp6CtvsVErGK+5wJd3LNL3lC3+zom7iTACAgABDm4jR2aHnB7JqMtHkw4HLrqH2pbZkRRwyr2fc/qmbD+vnjDhXXRKzSkyBGOzImHbVL+y5HWAEQEABwjYvu7ZVaxa/SlBHT4dKNRkbCyEjdeiOJYVW/7M2P1BhN/vYFzR48RMSqkMU10pGuqIZrdJsHo27ZuMv2cUMBQEAAIAAbTh1/i6Tjgpf4KchIyxhWQ2NY3mbj1b7e7DkjxgR6AntbSWoZwzJLMSxjlo+CJFgxIh2R16ldrZCIVdznTASjHU260vVHR6/njgKAgABAkBus6XQGlzRkxIR8zbRvc82v6h96GGI2rY5jWEbDjyUlIESs0pMgRjtyKB01b/J9MRsWAAICAG0Z3Nonq1ujEYO4ZCScdARvgacwMa3qL7Ivbaj7GJYxniZfeEkzBw/GLB2MdiAdOThGoUQ1yohVgDcZveOmh20/NxYABAQAWrBhau0NMtoQrTvEJCOhBz9MsN8tyEB1mxvNpFVTc5g2X2Bv9uvlMayF/4Y7eSZIgIoR6Yir8uxshUSs4j5nkhntaPKm9UfXjL2VOwsAAgIAre6jpi4yELk7xCEj3cawgnRV9aKw/J81tcjCE9g7jWEZL6LvgRCxSk+CGO0oqHTUdTeWGBYAAgIATbnpo/2SuaWtO0QqDp2uNK4YlgnZXtNgxl9TVaOY2ueMBI1hyWhq9x5N79vfhXQw2oF05OAYhRLVhCNWQXoUq3dc/kO7ghsMAAICAA1Y31O5SdK6WL0h6pXGGsNq9VBCUzeK0UBG6mblsk3b1SyG5Wnk50FjWESs4iwiu1khEau4zxmHRjsas0blsRu4wwAgIADQ+B4bPirgjIzEHcMyLaXBNGqvV5fPqhKWpZhWqxiW0dG2s2ERsUpPghjtQDqCdh/EsAAQEABYxu9cu3XASDcn7g1drTSNGFa75RdGRuqfMWLqRkaqYlqmrs6pimFN79mn6X37mkgHox1IR87kMOJGJxGxCsitr/v6vlXcaQAQEACo4ujqdW+XtDYRb+h6pc3qfxPMJSKLYal9nGrZF9jVOL1VNTJSPROWjDc/GxYRq3SLyJxFrBjtSHq/rFq9YuBG7jQACAgAVF+MRoOxPUDQiZm04o5htX44e+3T12tjV4ujI1VmsvDldRmjo4/+nIhVKkUkESukI8KPbgwxLAAEBAAWOO2We1damZtjsoWYZcRT7cP/WitBMjEsLX+K+rJpd+tGRpbNyustvmf6wCFN795DQYt0ZPMYhRLVzEasgvD2ax85sJo7DgACAgCSJuzULZJWJWALMa++eeRp+aJJxrBMc2UxdXP4LizqzUuVd+y7IMM/fyzdk4SIlYsFbTbaUsDRjiasnO7tu1kAgIAAgGRMkNmvsigjDabJVStZCLre5j+bQG9pJSieakd1jv3/kbQEhIiV+0JGxCo70ux7g9xxABAQgMJz4uDHV0u6KWVb6HL1pk31X7tCd2JYjWbPWnqfMaXFGbFmDx7R1EsvUdAiHW7LYcSNzljEqu05Y2RvvvTHh9cKABAQgCJTni7fKqmLp/TGKCIdu067mbKMmn5vJJUYllps89j3RYwxGv7548WQjliKSGaxSq8tBRvtaN2WAW+m5+3ceQAQEIBCY+VHNDNLzKMibTdhQqykfoVeBw1p/nP3MaxqSfIW2zj82OOStVGfAESsclPoIx2ZkGYjZsMCQEAAissJt96zxsrckLApxLuJgHJiulthcDnpKoalY09Gn/9v5tARTb74YkEL2oJJh0TEKr/SfONF3zyyjjsQAAICUEjKdmCzkQbi3UpaMtLNQwm9xm1ONYZluothEbHKc0GbcluIWIWkv3+gdCt3IAAEBKCg2ISjAHHLiAm4iTCzYQUdGXE0hkXEqggFbT6lw9XzN4pVWWJYAAgIQAFZv/kj6yW9Jb0WxCgjptEmongoYdA2xxfDmj0yrInnX8hhQVsw6chscZ1gxCrfcnjD5T8cOY47EQACAlAsKtosqd+NxsQlI6axQyxbrNPZsBZGJ1pZTUQxrPnpeJvGsIhYZavQZ7SjiNJRTa8tG2JYAAgIQLGwMo5GALqVERNwE6aNLHTSZq/92jqNYVVtoyaGRcSKghbpcFSa2/Qa1hLDAkBAAIrDupv/coOR3ux+S7uQkYAjHSbwJoLOjtVkat+aIQ7TYQzr2CjI3PCIJp97vnARq7Y1IhGrCNrCLFYJdm/Xv+Fbo8dzRwJAQACKQc/cbTKmL9aZqZyRkYDLmwZfYO/6oYSNZMS0bmnLGNbSbFhHf/5Yzorr9tJhE2tLRgvajttCxColeku9/mZuSAAICEBRLrzBpfq4/q/xeZCRTh5KWPe7jgdfms2GVT3aUbdEJzGsxx+X/IQrKCJWSEdW94tzomoXYpTEsAAQEID8s+aWPzvBWr2pcU2fMxkJGsMKvImwDylsNlIyPypivNYi0iqGNTKmieeeQzooaEO2hYhV6tJRO432m674wdhJ3JkAEBCAfF90Xt9tknraF9x5kpEQMax2v2sWzwr9UMLGbQ4Vw3osxhgWs1hloKAVox3ZlI5qemy58k7uTAAICECuMdYPN+SfWRlp8jRzKYCcmGBvabr6Th5KWL1CTy1jWObYMiOP75C1vsOFGxGrXEuHq3LoRFtsmAeGDnJnAkBAAHLL6ps+eqJkru7cXjIoI6a+gFdnMaxW5mCCy0jTmFX9z6YuplUdw9J8DGt0TBPPPJsZ6WhbIxKxiqAtPCgwdemwoRtz7aXfGj+ZOxQAAgKQS3p7/EG1i1/lVkYCPs08zEMJG8mFabWJdjGsZjJUN/oRxWxYzGKVo+KaiFUGpaP645TUU7mNOxQAAgKQS6yJ6eGDzspIkPiVadIVme5WXTcyYhoJTcuvqpi65WtnwVqMYT2xQ9YPGMMiYoV0pC6qsThueuIR0WE2hocSAiAgADnkxLd9/BRJb0yk5ndNRgLNhmVkOp6+N4DotIpotYxhmbrNmJoYVnl8UuO//rUT0tG2RiRiFUFbiFilLh0RiEcDrrry+wdP404FgIAA5Iq5UnlQUinxwt908TTzREykmZzUF/8hYlgtXcXU7ZuanRWgpdUxLE/GGI089kQCxTURq/TaQsQqD9LRZg1epdxHDAsAAQHIGSbFB16ZNGWk24cShnzOSIsFGv5UP1lX2xhWVfc5/7vhHU/KVipErJAOIlZRi0eSp5zHQwkBEBCAHHHClo+cKukKR0QoHRkJ/FBCE6Tx6iiG1XS7ZukL7AuvB4phHRsFKY9PavxXv06kQiZiFXdbiFilLh3xRKyCbP/KN37/yBncsQAQEIBcUJ4r3eHk9ZaKjJjOFzMmmIy0fShhsxdrn35u2n1vpGo2rOGfPx5bhUzEKu62ELHKg3RE8HFMZc5s4Y4FgIAA5AKbhaH9WGWk2xhWu7e0anOAGFY7QVm2b6q60PnvggzveFK2XI6sdCJilQPpcFUOnWiLM9JRszI/rpkKAQABAUiS497x8dON1WVtn39RBBmJJIbVaoXt2hsghtXo52rxWHxQelUMS0aVqWmNPf2rrksnIlZxt4WIVerSkVbEKsB+MdJlV3z76JncuQAQEIBMU/HLdyyviIsuI1HFsFosbOq+XW5arbb509FN001UxbA8I2M8DTeaDStA6UTEKu62ELHKg3REKh4tep1Kj27nzgWAgABkHDPY+p5XFBmJO4bVrqtr8+X1MN8TqX7PgugYo+End8gvzwUqnYhY5UA6XJVDJ9riZsQqUA9kiWEBICAAGWbdLR97hYwuCX4fLICMJBLDCtJwdR7DWtzMfAxr/j9/ZlZjv3xaRKzSbAsRq9Slw+GIVUDecMW3h8/iDgaAgABkFDvUrCJGRpKIYTWfDcvUPPijvs0hY1hamA3L0/Djj4c/1kSsumwLEas8SEdCEatA+MSwABAQgMwS8OGD+ZaRDqQjlhiWabGwUZt5d9U0hiXVfN9kZMcu+XNzRKzyIB2uyqETbelOOiL9OPGcv4PcwAAQEIDMse7mj7xS0oXR30uzJiOmSXypftmQMSzTTigCioppsEDVQwZDx7Bm5zT6y1+6X+hntrgmYpW6dLgw2hH3frG66NJ/HDmbOxkAAgKQsaurdGf899isy0gXMaygCxvTYslmNmKW/ds0Faj6GFaDhxISseqyLUSskI7kryVjLaMgAAgIQMYwGorSDQLMHpkRGTHNR0baWkfcMaxWzal/8nrzGNbYU79QZXqWgtZ16XBVDp1oS+4jVkFgNiwABAQgO6x5539/tYzOj8MNgt2LMyAjNQMMZvGJ4ssXSyuGVS8ejURk6efqGFZlZk7jv/wFBW1HbSFilbp0FCFiFYzzL/vHsddyRwNAQAAygbH2jiTcIB8yUhdtajYyElkMy7QRnEYxrAbLmrpljXesS12IYT3+BAUtESv321ItHi58HMek2Vqf2bAAEBCAzAhIsKH71GTEIelo2VSvgYyYrlfdfOEgMazm7zcLEiJPo0/9Qv7sLNKRpnQ4WNA6Jx3Zf2ZHrOdv4L4cABAQgDRZc8vHzpG0qaOaPDEZcWRUJOhsWFXxpjCjG/HHsBaWq5rGd3E2rLJGd+4qUEErIlbOt4WIVQdt2XTpt8bO5c4GgIAAOE2ppDu7Lu4LJyMm5H7x2nyBXUouhqXlYrIQw3piR84LWhGxcr0t1eLhwsfJoDSbUplREAAEBMBxbPUDrCIo7nMrI6b75cI8ZyTw+ruJYZn5GJaR5GnsqV/Kn55BOuL8iESsWksHEauu22Jl7hQAICAArrLhHR87z0rnxlbc51FGonoo4aKMeAr8nZHIY1iqjWGVyxrd9VROCloRsXK+LUSs4miLkV5z+T8eOY87HAACAuAk1piAQ/XISDATabWYCbBvGklD4/dHGsMyVbNhPfZ4AQo3IlZOiIcLHyenI1LWN8SwABAQAEcFxNoOpmyMoLDPrIyYiJfTctmoEZGgDz3sMoa1uC1PY798Wv7UNNIhIlaxSAcRq2TaYhAQAAQEwEHWb/74BZLOSd0isigjYWNYbZdvIAiLAxpebZtbxrCMOo9hHRsF8SsVjezalaPimohVHqSDiFXobbz6ikeOXsCdDgABAXAKKz/Cv5AVVUZMvMvXp6rqvi9iWo6QhI1hmcYxLEY7KGg7FQ8XPk7hRqSW9l7FMgoCgIAAuGcgg/GsOO8yEi6GZcJ8AGNC7Jf6Npvl0tJy3S1iWE//SpWJSaSDgja8dBCxSqEtjTfiefYOWWsEAAgIgAusu/VjF0t6VfxbyrGMBIxhBV++tSA0fN+iM5i6djeLXSlQDMtWfI3E/VDCyKpRIlZ5kA4iVtFfJNbqlZc+MnIhdzwABATAFQaT32ReZSShGFaTX9R8z6RmZMRTNzGskccfd7hwI2LlhHi48HEKHLEKspiJNGoLgIAAQHdF/G1pNyBSGUnktm46aHe3MawO5abhyIiCxbCMJ8nT2K+fORbDKpJ0FLKgDSkdRKxSaEs46ahdzNxJDAsAAQFInbXv+O+XSjrLJRty6RkjoWSkUeQq0hhWizfXb8fUv1YlI96CWEhGXusY1vzPtuJr+MknHSiuiVjlQTpyFbFKTA4DbqT1Ymdc9sjoG7jzASAgACnX+y4PyWdVRjwFf2aHFFsMq+nOqBIT00Kg4o5hEbHKSHFNxCq949TNaEezw+kPCgAQEIAU76DGWHNbNtrquoyYUBtMPIbVzn9MlXBUtbs6hjX+zG9UHh/Pj3S4WtC6JB1ErHIhHTXHw2iIGBYAAgKQGmve8ZeXS+bMSKvyostI01hVkw2mEcOq+9k0HBkxSzNhLcSwfKuRHU92t4MiLluJWLkpHUSsYtxIB9JRt/jpl3/nyOXcAQEQEIB0ynijoVir8kLLiGlRI3gNNphiDKuRxFQ/Pd3zJM+TMZ6GH38ihiKSiJUT4uHCxyFi1XVbgizqy2M2LAAEBCAFtm71jLG3N697kZHO3hy8GDBhZtJKIobVcNmqhxIao/Fnn9Xc6Gg2pMPVgtYl6SBilQvpCH08jIa01VJDASAgAMmy4bHjrpTVy2qK7jgL+yLJSJNYVdMCwTTYYNoxrPrpehfiWFYabRTDImKVgbYQsUpXDhOLWAXh1De88eiV3AkBEBCAZO+3xgx1VnAjI92ZSKuIlmm9QdNuJCOmGJaWnopujNHRJ3aErH6IWDkhHi58HCJWXbclqmZ7JUMMCwABAUiQrVs9X2ZL9wU3MhJUOhoW+lXL29AbTCuG5Wniuec0NzKSvnS4WtC6JB1ErHIhHXGcXtaa2we32RI3RAAEBCAR1j9+/NVGOi3amh0ZCeohzdxkWT3SMIYVYGNxxrB0rKEjTzwZSZlExMpN6SBiFeNGkolYBVn7KS9uGL6KOyIAAgKQ0L24i6F3ZCTkKkJ8f6Pqd00LD1MnIqa1jMQVwxp+4omOyyQiVjGJhwsfh4hV122JvdlVG/A9YlgACAhAEgxuK0naklzNXkQZMS1GRsI/CX2pXmgmG0HbG2EM67fPa/boURGxSlk6iFjlQjpiP72atsXefu0jtocbIwACAhAr62b3XSfp5HRq9oLJSEg/MKb9L5vXNPUjI15z2YgihiVp9Mkd8RRVjHbELh1ErGLciDMRq/YrN9KJE3bkGu6MAAgIQMz1tDfoRs1eJBkxLVYRfkRkQUqaP329VkZM066ymxiWp+EndkRXVCEd7cXDhY9DxKrrtiQZsQpUSPk+MSwABAQgRq7d2iNps3s1ex5lJMBsWDWrMCG2u/zn9jXHwoa89s0M+FDCiedf1OyRo90VVUSsWksHEatcSEfsp1c3+8WYLRf9zPZygwRAQABiYe26498s6SRna/bMy0iIYr7JKozXQlgCysnSyIhp3hbjqWakpIMYlpHR8I4niFg5KB1ErGLcSIYiVgE5oTQ6+ibukAAICEA8ZbLxhpwp7HMpIxE9Ot0sFPotD2bLVdTLSPOhDm+5YDTaToMYlozRyBM7gn1EpKO9eLjwcYhYdd0W1yJWwYopf1AAgIAARM577+2V7GYnC/vcyojXvL1BZ8MKNLVvVA8lrNpYwBjW5IsvafbQ4WwVtC5JBxGrXEhH7KdXzPvFWm3ZuM32caMEQEAAImXt/rm3SOY45wv7PMqIafL9C4VxExNi37RYmamqZ4ypqmdqnyly7IvrXoN9rroYlqfhHTsKXtAmLx1ErGLcSP4iVkHYsPqEo9dzpwRAQACiLuyHgiyEjKT1oULOhmUkeWb5VzVavr/xNqxMbVSrJnZV9X2R6ocgVsewHn8C6QgiHi58HCJWXbclixGrYD0TDyUEQEAAomRwW5+RuTWG6t9RGXFNOJrV/l6DNncwG1aQ74wsLzYari7QbFpmYWrfY/+e2rNHs4cOuVPQuiQdRKxyIR2xn14OHCNr9Y6bHrb93DABEBCASNgwe/AGSRtirv4dkhGXR0VMoDYHeShh89UEi2Etf80s/3l+dGQpRlYdwzoW0zLyNPzEEzkuaJOXDiJWMW6kmBGrIG1Zf7T/6Fu5YwIgIADR3FcCxa+QkeSlo9lyRh0/Pn3ZKoJGvZqIiDk2WlL70MOlL6GHng0rb9JRLR4ufBwiVl23Ja8RqyBtsZYYFgACAhAFN32030q3pFT9IyNta/923/1o1eYQs2E1WIWRCfz22prFzIvIQgzL09TefZo5sD+ZYskl6SBilQvpiP30ys6I1Dsu/+GLK7hxAiAgAF2xvr/nJknrHKj+kZGQlb5p9KVy4wV8fxM5aTQhV4AY1tJypvZ95tiX2CWj4cefzHfhRsQqZTkkYpXAObOmMrn6Bu6cAAgIQJf3HJvCkDoy0ql0BJ8Nq/qZHW1GMkwbGTFSkBhW7durHt2+EMN6ckdUJy0Rq/wUtMlshIhVZG0xxLAAEBCArrjr0wOSbnaj+neEtGWkoxhW0A8Uvt2moYwE3G6diEzv26+Z/V3EsIhY5bKgdUE6Yj+98jQiZfxbX/f1fau4gQIgIAAdsW508u0yWuuGAzg4M1WqzxjpNIalNrNhtZKRgLNhLX65vMGOahDDMlXTCR99PORsWESs8l/QRr0RIlYxfNiaN69a4fXeyB0UAAEB6PSGNOimAxT1gYdRx7BaSIlpJA4BtlH//Y+Fhx16rWJY1bNhPRHkvCRilfuCNuKNELGKWzpqX/GIYQEgIAAdcNot966UaRG/QkbSk5FYYlhBfm7cZtNoOybIx14ew5o5eEjT+/ZmoLgmYpUn6VCSzXZJDmN6s7F6+7WPHFjNnRQAAQEIxURv+RZZsyrYsySQkXRkJK4YVjsZqf4Ce7N1NnpCe5XILES05p81Uh3DGq6OYRGxcl86EiuuMxyxyvFoRxNWTldKNwsAEBCAcPeb+iH0oA+2Q0bilZGkY1it3t7o+yK1s1+1nA2renlvKYY1/NgTRKxSLfRdKq6JWGVIOure7Q1yIwVAQAACc+Lgx1dLuql9oZwVB8ihjKQWw2r27jBPX68XkIX/9yTjafbIEU3t3uOGdBCxyoV0SESskv8g9uZLHz68ljsqAAICEIiZirlVUoCn2YYo7JGRmGQkrRhWkx9rZr6qeuihaTFSMv+6qfoy+vCOJ5I/FkSsUi6uiVil15aIP8ixVQ3YXvN27qgACAhAwJtHJzOYdCAj2aj+HZSRTp9mHkBYOophNfidqRaPpe93NI1hLX4v5NiDCUd3PNGVCHQkHi7UoESsum4L0pHiB6lbnZGIYQEgIADtOeHWT60xsjckUtg7Vf9nUEZMg4WciGEF+GD1X1ivmfbX08zho5ravTt+6SBilQvpkIhYpfZBmhyn+V/ddNE3j6zjzgqAgAC0ZLZndrOkgcQLe2Ski+YE+/5F8jEsNZAjU9sFt4hhHd2xw1npIGIV40aIWMXQllgiVs2ko/rX/T3W3MqdFQABAWh9UVgb4wOkkJHomtPp08yldGJYdaKx7Nki3pKQLMSwHn88mhgWEasUi2siVnmXjnantTWWhxICICAAzVm/+SPrfektThX2yEjr5jT6OkjD53F4IVYayj7qXg2xfxqu2lts7+zwiCZffLE76SBilQvpkIhYpfZB2khHgC3dcPnXRo7jDguAgAA0pKK+zZL6k6+XkJHum2MCfYHdmAYLpRrDWv4wQzM/Ha+Mp+EnnkxFOohYxbgRIlYxtCW1iFUQesueTwwLAAEBaFbDLp/9ChlxWUZMwOaYJt1fq+eMdB7DMg0fShgkhlU9G9ax/0aeDDAbFhGrFItrIla5kY4W52+3W/FEDAsAAQFowLqb/3KDpDe7dd9GRjr2kOqnkS82xwRscxcxLBNgmbarXhART3PDo5p44fnm0kHEKhfSIRGxSu2DRDva0XgTRte/4Vujx3OnBUBAAGrw+3WbpD53ay5kpDMTWf5yrLNhNX0paAzLLMWw5v898viOyKWDiFWMGyFiFUNbnI5YBaFXmtvMnRYAAQGorRWt1/EDo5K/vyMjgaWj2XILM2k1jVLNz0ZVIw7tNh1FDKvqPYsxrCeliu9GDUrEquu2IB0pfpCYIlbBtm2IYQEgIABLrLnl3hMk+6Zui+R07vvISFMPaTSq0fB3CvCckfrpthKMYY2Oafz559NzBSJWkbSFiFVKHyT50Y5mvOmKr4+dxB0XAAEBOHYh9Pq3SeqJskhGRtKSEdP5UtUzaXUsI62+vN5FDGvHE8med0SsImkLox0pfRB3pKN6oz0VYlgACAjAAr7VUJxFMjISt4yYLpZr8TsjyTOtp9c1zdtr6me2aiQegWJYnkae3Clr/fjPLyJWkbQF6Ujpg6QZsQqwUR5KCICAAEiSVg9+9EQjXR1/kYyMxC4j3cSwAjXHNB/RqG9vtw5VE8MyKo+Na/K538ZTVBGxilQ6YhcPl+TQhQ/i5mhHswv92ku/tf9k7ryAgAAU/SKo9A3K1MevkBE3ZaQbEwm4lDHt19FWRpp8eb3B6EfwGJano4/vIGKVxEaIWMXQlkJErIJQ8iu9t3HnBQQEoOCYhQdEdV1wIyPptjfqGFYjKWmweKOvhNS8vLCA11w8As6GNbrzSVnf724XErGKpC1IR0ofxPGIVcAuaFAACAhAcVk1+PFTrPTG6AtuZCS19kYRw2oZ0WoxF++yAQ0Tbue1i2FNTmriN88WuKB1QzqIWCX8QbI72tHsMr/6ym8cPI07MCAgAAWlVCkNSirFW3AjI+m0t4sYVuB1NJERo+ajJqZupMM0mFGrJoblLcWw5Gl4x47sSUdixTURq/TaQsQqTO01Z3qIYQECAlBc/HAzkiAjjsuICdiQiGNYrd6+OFFWq+9/zIvGYpfcYNmFGNauXbKVSsqFvksnLBGr3EhHix2fqYhVoHUzGxYgIACFZOWWe0+VzBVx1+XISEoeUt+QpGJYQSJabbdbN5uWWfoMlclJjT/zm5wWtG5IBxGrhD9Ivkc7mnHlRd88cgZ3YkBAAApGjyp3RHYNFFpG4t43kZhIy4ZEG8NqITHVMSzTWEhMzTS+S19gr45hjTy5g4hVRG0hYpXSBymmdNT0Bj0yW7gTAwICUDhMPEPghZOREO1NRERMyHaHeG+nMazFl1rEsEz9KE2jGJYnGU+jO3fJlssZL2gj3ggRK/elo8WOz13EKsjmfWJYgIAAFIrj3vHx0yVd5lJtXigZSWJUJPBsWF7zxsQRw2r0u2XT+pq62XirvqxujCrTMxp/5hmkg4hVTG0hYpUQl13x1aNnckcGBASgIMx5pTsaPEkOGcmljAT7wrlp2ZgQMSzTRmJMM7kxVV/7MHX75tg/TNX3Q0ae3JHsRUPEyv2ClohV1o6RmSv5t3NHBgQEoCCYmgdBpfAlBWQkZhkxEby32XNGWsWwgnybpM1sWGoSwzJG8rz50RFPI7uekl+ey0HhRsQqN9LRYscXMWLVvi1WnhExLEBAAIrAusFPvkLSJTFXwCnISFZqqQRlJLKHEnYyMtJFDKu6TabBTjFG/sysxn8dQwyLiFWGC9qUPgijHSHaUvtLK73hooeHz+LODAgIQN4pV4bk6vRNXW2y+/bmV0bCxLDaLR9ARqKMYVWvw5hjs2HN/3tkR4QxLCJWGS1oU/ogSEfItjRvYKnH56GEgIAA5B3b0ZA3MpI9GYnxWC17mnnwJ7B3FcOSqXoooafRX/xC/lwXs2ERsUI6InJIIlatpKPtuU8MCxAQgDyz7ra/fKWkC1M0g+42mVJ7My0jIWNYRgGXb7iBRvLQtjEtFm8Rw9KxGNbYr58unHQQsUr4gzDaEaItnTTQXnTpNw6czR0aEBCAvGJLd6ZSKDuzuSLLiAn4u06Xr1vONBrlaLCqLmNYo0886VBxTcQqvbYQsUpXDrtroJU3yA0aEBCAnOIrzgc/ISPuyUgSMaxGP7d+AnukMaxfPiV/djbFA0TEKt22ELFK7zhFeCJZg4AAAgKQR9a88xOvNtL5yRbKbtXlSciIcx/azPd07b4YXvW77mJYrV6ra4xpsEzAGJaZX48/W9bYr36VK+kgYpXwnmK0Ix3pqOWCy7556LXcqQEBAcgZxtg7UtiqeMaISzJiGiwWYQyr5TNC1GCUpNGX2OdfaxPDqv5vZMcOIlaZLWiRjqzPYhUVFWt4KCEgIAC5E5BY41fIiLsyYsJ9tDCxrY5HRRrFsDzJeAoXwzr2nrFf/lKVZjGspKpDIlbuS0eLHU/ESp3PYhVVz8VsWICAAOSLNbfde46VNrmkQ8hIwh+61WxYDT5afDEsNdhQnWg0+wL7shjW/GxYc2WN/fIXmZEOIlYJfxBGO0K0JaUGWslabbr04cPncscGBAQgJxjr3+lw65CRRD+011oQln20OGNYzZYzVcuaYDGsJ5+MYB8RsUqvLUSs0pXDlBp4TDwWt9zZc6oAEBAAR2t8bzDpGh8Zcak2MeHa3GJkpLVwBHnuR/2rDaJVy9opLf82fW0Ma/zpX8mfmYnvCBCxcl86Wux4IlZybbSjRjy0JCB3CAABAcg+qwbvPU/SuTVRHGSkmDLScDDDa9rmhs//80xEG28Vw6qToGoxMaZmPy/GsMpljf7yKSekg4hVwh+E0Y5MS0cd51z01SPncecGBAQg45SsGWpaJCMjBZUR06a9bUYyFp4x0uyjRRnDatZio8XRD80/mHBkx5MB92p09TERq5Q+CNIR8vx1I2IVqDDrscSwAAEByDzW3h6oSEZGci4jIbfdYmRk2Wo90+I7IxHGsIxRq4cSjv/qGfnT053tPSJWMbWFiFV6x8n50Y5m70dAAAEByDLrBz9xgaRzQhfJyEh+ZaTVbFhNY1imgQh08tG6jGE1XHb+oYTGk1+paPSpp0TEKu22MNqBdHTFqy/5xtELuIMDAgKQUSrW7/AvSchI/mXEdLh8k2eM1EuJZ1o/jqTrGJapioItPdAw0GxYRKxiaAvSka4cZidiFWy9xLAAAQHILMaawUirbGQk4zISNoZlOmxvo2lz1fKZiOFjWKpddv6/sWeeUWVqsusiEunoqhqOuLgmYpXj0Y7G+PYOWev8nQYAAQGoY91t//NiSa+KrcpGRrIrIx3FsFrJSYj2LpORaGNYtuJr9KlfdCUdRKwS3lOMdiAdyzudV176jUMXcicHBAQga5goRj+QkXzLSKcxrCa/q5sit+1sWJ4JMIDSQQxrx5NErCJvC9KRrhzmLGIVgMqyGRwBEBAA57FWt6VSZSMjjsuIaTEyYoL9LnRb27R50R+iiGF5Gn/2WVUmJ8PXeEhH/HuKiFWI41SQ0Y6m3YK5kxgWICAAGWLtbfdeKums1At7ZMRdGTHhRkbax7DCCkmTtTd6xkioGJaRrfgaeWpX8l5AxCrU6ohYIR1t9s0ZF3/98CXc0QEBAcgMrgxdIyPuy4gJWfIEiWG1kBQjtZ/S19R9rLAxLE8jT+5MVjqIWCEdXclh8SJWQY6T8YlhAQICkBGskext7rULGUlWRsJKxMLZY5aXQl3FsIL8fKzNZtm2TO3oh6n+ufVsWBPPPqu5iXGko7NqOOLimogVox0dnr9GQ8SwAAEByABrbv/k5ZLOzExhj4zEtMlg371o9WJ9bdB9DKudjLT6AnudiNS4VoMYlpVGd+3Kf0HrgkEx2oF0xHf+nn7JN45czp0dEBAA18tkq6EMVPPISKebjKW97VdcWy9EEcNqt3lPrZ5kaOq/I1Ifw5JZjGHlu6BFOohYBRAPZfj8tRoUAAIC4DBbt3pGuj21IhkZycDmFt7covsLMBtW598Zaf1z4xjWfFtNAykxdeLjzf9njCaee07l0bECS0cMhS8RqxDHidGOSHaB1R3aaqnXAAEBcJU1O192pZVelnqRjIxkR0ZMiCeaN6svjOmwvmgjJ8um4a1us9dkWW8xhiUZjfwiRAyLiFWo1RGxQjoSupZOfcNlR6/kDg8ICICr5a+1AWYMQUaSbXNW3CfcCkyD5WqeMRJJDKt1W4xpMLVvdRTLGI0++WTGC1qkg4hVAPFQ1s/fNvhiNixAQACcZOtWT0ZbEq5akREX93HgTZomdb6piju1kIjAdUgUMaw2s18tvtOrnQ3r+ec1NzaWU+mIofAlYhXiODHakdQusMbePrjNlrjRAwIC4Bjrd77salmdlqlCGRlxbJOmSTcZYAVN5KR9fdJJDKudiMzHsORJ1mhk55PuFrQuVH2MdiAd7svhKc+tOXQVd3pAQAAcw7dRDlHnREay0t7MbLJ2BSbkbFjLnjESSQyryS9rYlg7iVghHV0W10Ss0jtOxzZqDA8lBAQEwC0Gt5Vk7JZ4atkMy4hBRtpv0jSv81vOhhW2zfWzaJmWMa2OY1hVT0M/dvw9Tb74ouZGhjNatBGxSu84MdqRtnTUbNjX7dc+Ynu44QMCAuAI6/zh6ySdHH8ti4zkW0aamkgwuejwoYTtZCRUDKvq32bhQ1lpJOqHEsZaXDPagXQ4sm9c2PDSr06cmD58DXd8QEAAHMGXHUy+ls2yjAgZaSYYITdpGuaovOZS0mY2LGsalSCdxrC84LNhpV5cIx3pFtdErJwa7WjWFksMCxAQADe4dmuPMWZzurVs1mSEZ4y085AllzANfh90lKS+zeFmw1rYVs3ISKgYllmKYe3erdnhYQeLNiJW6RXXjHZkQjpq8LcQwwIEBMAB1h5/2pslneROLYuMZF9Gmnz3I8gmTadtbi4jRvVfYO8shjW6K8JRECJWjhW0SEc25LBlxCpI33TC1NSRN3HnBwQEIO1S1HQ5+1WsBTcykh0ZMR1vMuxsWEvPGDHt3KPhLxuVkMFiWF1+D4SIlfvS0bSgJWKVvdGOxlSsTwwLEBCAVHnvvb1W2pwNV0BGMiEjYWfDavsF9nYbqH/OiGmz/dqoVe0X2NvFsF7SzJHDCRdtRKzSK64Z7ciLdNR2B2bLxm22jwIAEBCAlFh72HuLZI6LvDpOTEayQhFlpIPZsEywxVp3yY1lpOG0vDWCUj1CUhfDqhpxGd21M4HimtEOpMORfePChqNvy4YVaw5eTwUACAhAWvcYo6Hl05dmSUZ4+rpbMmK62EKD2a1M1RfYQ86GtSQVJrwAVZehdSMhozt3xVRcIx3pFtdErPI42tH0Uve9QSoAQEAA0mBwW5+kW5v398gIMtLhfg79UMJ2v6tfb9jZsOa/y1EtJi1mwzJ1r9n5CJY1nqb27NHM4UMR1q5ErNIrrhntKJJ01HUJm1/18K/7KQQAAQFImDX+6A2SNgS7NSAjyEgn+7mThxJ2e2hbzYZl6lYQfDasRRmR0ejOnYx2OFfQIh3ZkMNEIlZBWL9B699KJQAICEDitaMNNBMIMoKMhGuz18Ua2glL3eueCfeYkGWrbiQizZcz8zGs4Y4eSoh0pFtcE7Eq7GhHs9bwUEJAQAAS5qaP9ku6pfv7OjKCjDRps2nQ0ChiWM1+sew5I61m3mo2+rFkMqbhbFieZDxN79+vmYMHu6mGIy6uiVgx2oF0dLAb3nH5thdXUBAAAgKQEGtWrrxJ0rpoO/MYKmNkJAcy4in0l8G73k3NZcQsa4epkyavyblhakRlpOVDCRntQDoc2TcubNgl6aj95ZrZ1StuoCIABAQgqY45YPyqs04+psoYGcmQjJiO93PoGFa72bA8dfE1lep9vBDD8uZjWDuRDqeKayJWjHY0ORNatMUQwwIEBCAh7vr0gJG9OZnbEDJSaBlpORtWfXGv1mLRcH0hZ8MyOva9kcX1N3va+oJsqHbZxaeie5o5eEAzBw6IiFWaxTWjHUhHgNOj9Ttvfd3X962iMAAEBCBmVk+U3y6ZtcnfEJCR4spIkFGNqBvaYjasmohWoxhWfbuqfp7/HojkaXjXk3FdLOnVc0Ss3JeOVOUwUxGrIKzqK/feSGUACAhA3CetVeIPYEJGiigjnT9B3TTsWruIYZkODqupX3VVDGv+38M7nozyokA6Wha0RKwY7WhyJnTZFiufGBYgIABxctot96600s1ptgEZKZiMdPxQwoWHB7aRi9APJVTr2bAajozUvWf+v9nDhzW9f38ExTURK0Y7kI6OT4+uuyjzdmJYgIAAxMjogHeLJGc6WmSkSDLSzUMJO21ku4cSqoGI1O+XRq95i3I0EuSZIIx2IB2ZkcPcRayCsLK/3HuzABAQgJhKQIdn/EBG8igjpot3mjb7t6777SaG1WYZUzMzb20Mq6mAIB0hi2siVox2NDkTEmiLlSWGBQgIQBycOPjx1ZK9KQtFMjLikIzE5SGRPJQw6CPQG3x/pFkMa+GzN3ptIaLlmfmnsHuaOXpU0/v2tq2jiViJ0Q6ko7PTIxluvvThw2sFgIAARMuM+m+VMSuWP6ANGUFGWrTZRCkj3cSw2q2zzbfJG76zTQxr2fGr/re3+F2Q4SefZLQD6ciIHBYyYhWEgbL1306lAAgIQPSd/VDrmhgZQUbikJE4YlhN1l3/jJF2sawQza2dnffYus38M0FGdu46VtkiHS0KWiJWjHY0ORMcOX+NzKAAEBCA6Djh1k+tkXRD8JoYGUFG2slIyKbHFsMKssH674x0GcOqkhAZo9nho5rcu4eIFaMdSEcnp4c75+9NF33zyDoqBkBAACJitt9uljTQWU2MjCAjbdobqulRxLBMh+83y4Si6xjW/P+PRPVQQmcLWqQjG3JIxKqLBvabWf9WKgZAQAAi62c7nP0KGUFGIpGRqGNYLdZtWv3cQCiMF9iHmsewjEae3LkYw8q1dDQtaIlYMdrR5ExwXpqrLmtfzIYFCAhAFKzf/On1kn1L9DUxMrJstXEX91mXkVRjWK1eWxCRuphWiBjW3OioJnfvTqDQd6lwY7QD6QhwejgrzQ0WM7rh8q+NHEflAAgIQJdUev3NkvrjrYmRkWR2Q15kJM0Ylho8XL1aLhZEpNG+rrOpmmU9jex8Mo4TFelwTTpSLa7diVhJ2R7taEJvuTJHDAsQEIAIeuF4h5SRkZRlJEvdZWdfYI8vhtVkeVWLUt13Rszy9y7EsEZ37eoshkXEqr14uNlxpLdhl0Y7si8dtavweSghICAAXbHuXX+5QdKbE9sgMpKCjGRsVKS+sF94sJ8JIgVxxrDU+Evoiz96tfu5UQxrbFSTL77YZaHvUuHGaAfSEeD0cFaaO+2jzPVveGD0eCoIQEAAOsSf7btNUl9qhSYygoy0Lf6rZSTsc0biimE1i10t/Owt3QLqYlij7WJYRKzcl45Ui2siVunJ4eIKe/2+6c1UEICAAHTanRq58WAlZAQZCSQIzb/Anl4Mq/68XVi09rsgxhx7MvpwsxgWEavW4uHmRZ/eholYJS0d9dc+MSxAQAA6Yc2/uPcEI73JuYZlWEZiLe6LJCOBZsMyS7Gn6uanEcNqKjVVv59/Knp5YkITLzyfkcKN0Q6kI8Dp4aw0x7hCa970uq/vO4lKAhAQgLDd61zpNsn0OB3Hafi8CHdlxCIjSZhI6zY3FNiAstFMIBZ/DBLDajC3sKmdNWt0506kw2XpSLW4JmKVnhyGWmFP/1xpM5UEICAAYUs7U/3wQcdHGUzeZCQrvpDGPu72oYRNRkYaGoUJ145AMazqRWun7118KOEvnpK1vmPFNRErRjuabBrpaPZOYliAgACEYfXgX50o6Wp3is6iyQhPX+/IQ4LOfNWozV675scRwzKNY1jjE5r87fMOFG6MdiAdAU4PlzpRF1a4tLOuvfRL+0+mogAEBCBwB+oPSupxruhERpCRYCbSYuk2Ea3q2bQUQHK6imFVi0htDGvkqZ1IR64K2i42TMQqITnsYoWN31ryTek2CgpAQACClnQ18SsXi05kpNgyYqI4yQO0t35q3wDfF4kqhrXrKVnfj/fEcqHKJWIlIlYZlY4Al4011o2ZJAEQEHCdVYOfPkXSGx2uaJERZKS5h4SOYbVYX6OHHjb1n2hjWJWpSU3+9rmYCzdGO5COAKeHSx2gCysMd5yufv2XDp5GZQEICEAbSsfiV6WMVLQxy4ibICOBTKTF0kGWbxXV8pYNlDRdf9gYVlUUa2TXzqhPFKQj9eKaiFV6chh5xCpQneeVLDEsQEAA2vazsT5AKWsywgMP3ZWRuGNYTX42prWMNFtv0BiWTNVsWL+UrVQiKq6JWDHa0WTTSEesomqsYTYsQEAAWrFyy72nSroipWofGUFGwq88kRhW0DZ7VV8dMV3EsLzFGNbEc891evDFaAfSEej0cKnzcmGF0R+nKy966MgZVBiAgAA0oae35w6ZNM5LZAQZ6Xblccew2pjJsmeJmCZPXw8Sw6qaDWvXk0iHEwVtFxsmYpVQoZ9KxCpQR2ZMZQsVBiAgAM36YDsfv0q1vkZGkJGgKw+5oVAjIyGeiN5ITqq/wL4wk5bXxF1axLBGf/FL2Uo5QEFLxIrRjiabRjpSFVV77OZKDAsQEIBGrLjzr06XdJlbPoCMICMBVh40hhVm9QFdpNWbzYJ8LP7eq53WN0gMa2Za488+y2gH0hF+NxCxSu2cqd+Elbns9V89eiaVBiAgAHX0+P4dbUstZAQZcVpGXIlhNVjngmyYhaEQb0lCTJsY1s6dLlTcRKyabZiIVUKFvrMRqyCngvFs+XYqDUBAAJZRCvfAJCdkxFGQkQTPGxNu5Z3GsEy79zSLYbVa9VJ7zaKMVOnRvIiMPv1L2cqcUo1Y5bKg7WLDRKwSPEbuR6wCbcYXMSxAQACqWTf4yVdI9pKOq8PU6mv3C3tkJKHDZxr8YvGZGlGsr7M318awGghTo/PCSPLMsf+MJ39mRuPPPJOKdBCxImKVTqHv9mhH4E3ULviGi764/ywqDkBAAObxTc+QGuZJkBFkJGEZid5E5rvaxhtIL4ZlGr+22N5j/y18GX34qV3xH2siViJilWahn+mIVaC2GK/EQwkBAQFY6i/bzdCBjCAjCclIR6sM+QDDRiMjqcawqmSoWlKqvow+9vTT8ufKsRxUIlZErDIpHQnJYejRjlaLGGbDAgQEQJK07ra/eqWRLoy9uEdGkJG4D13o2bDafV+kU8lpIRbL1tVCUszSF9L9uTmN/+aZyA4eESsiVukW+tmaxSrCtlx0wUMHzqbyAAQECo9fMnd2XyFmxQmQkWLISNjZsBpFtEyI9UccwzK1M3sttG/0qZ3dHSciViJilWahn/+IVaDCz2pQAAgIQBRDwl0UnMgIMhLJoYvqoYRtHniYRAyret1V/40+/bT8ubnQB4SIFRGrdI9RcSJWgboeaxAQQECg2Ky54zOvlnS+M4U9MoKMdLtfWsawOohRmXYrb9e4KrHoKoblyS+XNfbMr0NJBxErIlbpFPq5nMUqqj7rggu/cui1VCCAgEBhsbZ8h7OFPTLSvokZavPye3jcMmJCvrVdbMtrYzpxx7CO/f/ozp0trmciVkSs0iz0iVgF7m8qlocSAgICxcXIDCW5NWQkiea53WYbq4yY5qsM+gBCE6ANpm7licWwPI0982tVZmdrdigRKyJW6R4jIlbhuypmwwIEBArKmts+fY6kTQ5VzsgIMhJNe02rfWO6XJ8JeV5EPBtWuazxX/2KiBURq5QLfSJWXXZSm17/4OFzqUQAAYHCYUr+nY60BBlBRmL6vogJdejax7DajXTUxbRiimGNdDkblpsFbRcbJmKVUHFNxCpKSsZnFAQQECgeVi7OxIGMICPdykir53o0+J6GZwLMbBXAPUwbGYkwhjX+zDPyZ2ZyUNB2sWEiVgkeIyJWcTTaSncIAAGBIrFq8NPnSXJ8+BcZQUa6kBET8sWunzPSrquvGsXoNoZVqWjsV08jHWnX9USsUjtn3I9YBWrLORc9uO88KhJAQKAwlIwZcnqWJ2QEGYlMRjqYDavhlMfN1hd2NqyFFXudx7CMF38Mi4hV400TsUq10M+cdLRrtOkhhgUICBQHaxamAMzAlLNxyEiW2py6jDh6DreUkRAxrHa/a7Xarh9KWD+bVu17msawZDT262cm5ftjbhe0XWyYiFWCx4iIVXqN5nsggIBAQVg1+OkLZHVO5orkKAv7VD9q1mQkww88bPkAwm5H07p9KGG9tFStPEAMS7OT3zde6UGkI8Z6kYhVaudMTiJWQRZ89SVfPHABlQkgIJD/k64U5NkfyAgyosI+fT3QbFgtZSTIQwnr2rTsieteyxhWpTzzgIy2uVPQdrFhIlYJFddErNKVw8YL+p4YBQEEBAqA1WD4L9wiI8hI1mTEtBgZadD1Bo5mtdgvRh0+lLC5iJjFL7BrMYJlZcdndj/+xcrxG74u6YhrRWSgDROxSvAYEbFKv9EtF7xD1mbpBgsICEA41t35qYsl+6rO615kBBnJmIyYhTLANJART0k+Z6R9DKvVqhfkqSTNzTyi/TsOPnqxmZP0ZaSjw3qRiFVq50yBIlZBeOWFDx66kAoFEBDILb5t8+wPZAQZybOMNC0Plre5+4cSmmWPAWm+86pFpO47IQ0kxa/MfWGh+daYbckUtF1U0kSsEiquiVilK4ddNJoYFiAgkGeszG2hC8s8FMm5k5Gs7NK0z4sWTySfL+hrah3TYMqrKB5KWD+jVqAYVrUK1Sw8Or3nyYcWr+njN3xL0uF0CzciVukW+kSs0m+07bKn8u8khgUICOSStXf+1aWSzgrdXYauIZERZ9tbaBlpaiItSononzNSLR/GBIxhVe1DOzf9Db30o8XvfTx6sZmzVg8iHUSs0pWgVOv3HDTanHHxg4cvoVIBBARyh7XLZ79CRpCR/MtIZ9uwCwX/sg/htVi3Cb9tU/dk9EYxrKrXTHn2gfpVlGwXs2FFUUkTsUqoTiVila4cxtto61WIYQECArnTDyPptki7VmQEGcmSjLSIYbX7nTUNvsBu2ky12yyG1fRnNRCRpReNjIzvD088/Q9frW/fihXHfUfSgUQraSJWCRbXRKzSb3QSw0VmiBgWICCQK9bc+enLrXRmbPdPZAQZyYyMdPdQwsYxrbCzaTX7snuDL65X/dtWZr+mI8+M1q/tu9eZspG+mEiFRsQqoeKaiFUxpKPmt6df8qUDl1OxAAICuaFR/AoZiaJyzooTFF1GTBfvbC4swWQkYAxrmYjUPvtDRjJzk/c3v1bt9tgqaQdGO7Jd0OZDOgJ7FhGrjjdhTZuZKgEQEMgMW7d6km5P5daYexnpor3ISPIy0kUMq93vjiUo6q4P02ia3RbrXPZU9ap/+/7h8d/809eafbTfGTv+u7LaH9nVTcQqweKaiFX6jbZOnDPW6g5ttdSGgIBA9lnzyzOvlMzLoiw6kRFkJNsy0l0Mq906j10bps1sWm1iWPXXnD/7D9q/Y6LZ1rcPmYqM/ULX1SsRq4SKayJWSEdDTr3wgoNXUrkAAgKZZ3n8KtqiExlBRrIhI/HEsDqXkfq3tI5h2Znp9hErW9rW0RVLxCqhOpWIVbpy6MoObLsOZsMCBAQyzrH41Zakik5kBBlxXkZijGE1XL+puz5MvWTUfWekUQzL9w9NPvf9b7XbJf/80/Xfk7QnK9JBxMqtmpmIlSPnjNHtg9tsiQIGEBDILKt/eebVkk5Lo+hERpCRxJsYqs3xxrBara/RtWEWv7w+/1+1uPhzX9GeRyfb/8HB+FbmCy0rRiJWCRXXRKyQjo5PwVOe6z10FRUMICCQXTqc/QoZQUYyuY9NOxlJJ4bV6ueaa8NUt3NeSIyRnZvaHuJa20bEKq0ikohVunKYkYhVgF1d8YhhAQICWWVwW0kt41dFkJGsgIwkKiNRRq4a/a6te7SeDctWxcqstfsmX3jgO0E/9qM3bviBrF4gYpVkcU3EKv1GZ2e0I8jqjOzt1z5ieyhkAAGBzLHKTF0n6WSXi874ZaRADzxERjqQEU9BY1PhNtbp+qq/vG6OTevrz35Fv/3tdPBVGCvZB5yoF4lYuV8zE7FKbBOhVmd14sjw/muoZAABgcxhjI35gUbICDKSRRkxHX5nJL4Y1rL2VT3+3MzNfT78R/S2JbU7iVi5Ix2Bi1wiVoltoptdbWSIYQECAhnj2kd6ZLU5q0UnMhKTjGSpzUk2zdQX/1W/TCGGtTgRll/ZO/Hdh/4p7Ef76Y3H/dhIzydW1xOxcqJmJmLlxjnT1epqvxS2hRgWICCQKVad9OKbZXRS5gplZCTefZzqR3V1P5sGzTNdtjmiGJb1vyjtmg3/kYy1MvfHXqMRsXK/ZiZildgmulpd4zefMDZ84E1UNICAQIbOLOvI0G20BScygoxEKh2hmmfm/ze5GJY3O7m942vFs9uivOayXdDmQzoCF7lErBLbRHSjHU37D2JYgIBARnjvvb1GdrNbNXT0BScygozE4iGNolSeWS4jxgv23pY/t5gNy/ovjn/3mz/o9KP97MYTfirpN5FcW5ktaBNYIRGriBpdxIhVoMW3bNxm+yhsAAEB51k53vcWSce5W0MjI8iIaxsPOKqx7AvsrdrbZQyrUvmi9Ohclx/s/q6uoUwWtAmskIhV4aSj68uh8zdvWNF38HoqG0BAwHlKvjfUuHhCRpARZKQzIWjwzmXN87qQEVMrOZL8uZmuI1Seb7cHvV6yXdDmQzoC16lErBLbRJKjHc3wrQYF4MwdEKARg9v6Vpem9knasLwnbNFJOod142Kz6bbZ2f1s83Ju2Kr/q1uvtS1/Z2t+V7U+W/07u/S76kqkfnt127J+5fmJh//kLEmVbj/hJQ8f+pWks1vuQZv3y9861JYuNmGzeIxs5s4X69S5K0kaHu0fOeWZt509Q5EDUcEICETKmp7pG5bLx0L53eSvs4yMtG9GSm12dj87MTKShKKG/cK5GsymZcLvML/8QBTyMd+C7U3PfyJWCbWli00QsUpsEylFrIKwfu3s+rdS4QACAu5ig8x+hYyEvneFbgIyko3zwkT8TtOFjCz97M/O3RfdXaayjYiVG9IRuE4lYpXYJlyIWAXcFrNhQeR3UIBouOmj/avXrd8v2XWd9aSdv5zeXTHlC9Km32Zn97PNSntjiGHV/K5+/baqaKlaZmG9vv+b8Yf/y6sl+VHtkYu/eugpSa/N76VLxCrXjc5/xCoIY/1zMyf/aOj0KYodiAJGQCAy1qzfcFNn8rFQerf4a3LBRkbiawIjI26fFxHFsFouaxo0ceEHT8afeyBK+ZAkY+39qZ9GRKxSa0smG12siFWgW/xsb98NVDqAgIBzWOtHNESLjMQ/kxYy4k57Y45hhZSRysz056Ov5UrbUjldiFi5Lx2himsiVine4IlhQeR3R4DuuevTA6unvf2S1sZ7Z+j85fTurClfsMS0HPyotvHPScawGm3PVp4Zf+g/v0YRj4BI0kVfPbTLSOdm8LITEaucN5qIVXPpqG3bRHm1PXnHDadMUPRAtzACApGwetp7e7zysVB+BxgZcc7xGRlJbj+nengi2nAUMSwT8ucF/yjfH4d8HNuiiXcUhIhVam3JZKOJWLUWD2sbXcSrSpPmRioeQEDAJRJ+UFHWZtJCRpzfx6nKiNfxhk3X76j+Ofr41dLdxr8v8nUSsXJfOkIV10SsUpcO27oxJtBMlwBx3LsA6rnl3pWrVg0cMNIqN+504V9yts1JXdS5j2m5HaGp2ZBtUCUlEcOylafGH/rP5ymmERBJuvirh3ZIOs+xS0ZErHLeaCJWzaUjPJPlVfYkYljQLYyAQNesXjVwixvysVB+MzLCyEiE7U3lozZ6XkfMMSzrRz77VYNzc1uyJ3ZMKyRi5X6jiVi1Fg/bcWNW9kx6N1P5AAICLuDokCwygoxkSUZMxxuOJIY1O/n5uPd8SXZb/CdwdqUjVJ1KxCqRTRQtYhUInxgWxHvHA2jLiYPbVk+Vpg5IWpGdVhPTij+mVaCZtCL9uGFnw/IVTQzLf3L8y//x/CQO3MVfPfyYZC9I9vQhYpXrRhOxai4d8TDdO9Bz8k/edvwoVRB0CiMg0BWTpelbJbMiN8+SYGQkoiYU6BkjsX3cIJGrdl9gDxjD8itfSKp0Ms1GQYhYpdaWTDaaiFVr8bCxNmagPDX3diogQEAgzZJtKLdFJzKCjCQuI908lHB+o8YLv63KxPbkiqPK51U9bEPEKgMFrYhYOS+HNgnxqProZlAAXd5lATrihFs/tWZ6Ze8BSQPte+msQUyLmFbEbQ4bWYnsoYR+3e9q12/9ymMTD/3Hi5I8IJd85dDPrHRRto5Lcoc+W6c6EatUpSM9Zky59+RHh44boRqCTmAEBDpmamXv5vbysVDKMjKSaps7vM8yMhJhmzt6axQPJfTUajYtI5NY/KqqbtqW0hna9Vs72YwLbYl2vxCxSl08bOqN6fdLc7dSCQECAmnQwUwYyAgygoy0fpvpqkXH/mECttlYz85tS3rPWXn3JW4OCUtH4BreiYJWRKycl0Prings7hNjDbNhQff3K4AwrL/r0+vL06V9kvqj69GyRtZiWtE3iphWhG22DX6ILIbVeDYs61d+NvHl978hjR198VcO/VjSpbGfB0Ss3G80Eavm0uF21zbXX5k95UdDpx+hKoKwMAICHVGZLW2WUX90f7RmZCTV9nZxP2JkJKI2N31buBhWsCeFHPvZs7o/rZLLym6P4ezq+q2dbMaFtkS7X4hYpS4ershH6+PUO1PqJ4YFCAgkWmQNxVcnIiPISNFlxHT/UU3bN1vPn9qe1p7xyt625acLEav0TEkiYuWAdDgUsQq0XywPJYTO744AoVj3rr/bULGVfZL6AnVkkfaKWYOYFjGtTtvcIIZlq4qVhjGsYwsFimH5/o/Hv/zHV6S5Ay/+yqEfSLqCiFXOG03Eqrl0ZL/7n+sxc6f+dMvLD1MdQRgYAYHQ+Na/LZB8LFSfjIyIkRFGRrprs2nwNhNS+upmv/LSi18ttsH624hYxdBgIlYRvzkG8chGxCrIW3vnbM9mKiNAQCD+/sqoswcQISPISDcyUrjzwnT/UZvHsPy52dn7U/9jRq/ZpsUHlbglHUSs3Cj0iVg5KR01bzWG2bCgszsfQGDW/Iu/P8GqvFdST6SdoZsrS+hOkLWP40BMy+b9vKir5MLMhrXwgMGa5er2g+//YPxL73ujC5/ykq8c/CcrXZXmoSNi5VaXQMTKvePU5q3lirEv27HllANUSRAURkAgZCc0d1uk8rFQfRZ2ZKRNews2MhJfE/IwMhJwNqz5tzQe/Dj2S2vs/c70KdZsa3pCELHqsC1ErFIXj/xErIK8tafHms1USICAQJynTLxDrchIoWUk/u+LZO28MOHaXG8dRpJn6t/m+5XJB5z5hJ5/v6QKEaso2kLEKnXpyGHEKtD7jIhhQUd3N4C2rB78qxPV07tHNSMgCXW2xLQy9nGibZRJpAnW7ePfMIblK+xsWMZW/mnsi++7xqVPePFDBx+RdG3qZyMRq0Q2QcTKveMUwSepzPXoZTvfcfJ+qiUIAiMgEJyevkEti18l9NdkRkbEyAgjI42/qO4p6OMHj9VMdrtrn8qaBjGsCM+b6E+uGAtIIlYxvDkG8ShWxCoIpZ5Z3UahBAgIxNHTDTlRwMUiI1khoIxkqc3ISEjpaNPmRl/+WPpdxZ+qfMG1M8T35u6XVE6lhnepiHShCidi1Vo6ChqxCrJCY8ygABAQiJJVg58+RVKIWXOyJiNM64uMOH5uNPwOumnR3kbdu/+Pk1//3/a6dlY89rZTD0r6x8Skg9GOWDeBdLgnh5Hv0oYrtFe//ksHT6NiAgQEoqt9enoHJZWcLu6REWSkEDIScDas+d+b6vZab7uzZ7DRtk6POdKRfEEb+eqIWEV+KsQ52tG0pixbYliAgECkvWBEM1wgI8gIMhKNdLSu5pf/zivbmfEHXT1rfTv3gKS5yGt4l4pIF6pwRjtaSwcRq65WaCOrFQABgcKz8vf+5lRJV7hedCIjyEjuZaRlDKvNyIitPDLx8H/Z5+qZ+ugtpx0yMt+JRDoY7UA6siYdXfpnMhGrAF2U1ZUXbdtzBpUTICDQfc1TMXfEf64gI8gIMtKdibRpkdV2189Qa/3toWsgpCOxqpSIlVtymPZoR1MHKXlbqJwAAYEoSp2hxLeYpIxkpb3ISIZlJHnpqI1hmTmVp77o+lk54/U9YKVZIlapF5HRrI7RjqJIR90qDTEsQECgO1bc+bnTJXtZ+kVnVupaZAQZibm9HcWw/G+NPfSfD7l+Jj759vVHJX0rGwWtiFghHTGJagLqGucxsrrs9V/YcyYVFCAg0MUJUr7DjfKTBx4iI8hIexNpgm+3Z+cUrHsoIdKR2CaIWLl1nLIw2tFkI0Yq3U4FBQgIdFEMWAcfLISMICNFlRHTqnBv9rsZb3bkwaycdZW50pckzRCxSmYTjHYgHfGcmMyGBQgIdMi63//sK4zMJZktkpERZCSvMmLCvGi/OfLV/+NoVs60x9+5YdhYfSM7RSQRK6SjeznMVMQqyMlg9YaLvrj/LCopQEAgNOVKacgaY6zJSqGMjCAj7dqcYgEXi4y0X5kxle3KGL4121LZMLNYpVzQhhQPl6SjWBGr9huxki37PJQQEBDoqKNZHEK1xsga0zjmgYwgI5mRkegblbyMhIphTZdMz5ey1vOskP2SpKnEi0gXqnBGO1pLBxGrlI5RwI1ULWblEcMCBATCMfCuv3ulpAsb9i0LMpKHIhkZQUayKiNBYljW/9rR7X80krX+5wfvOHFM0tfdKCKJWCEd3ftn7iJWgRazF11w/4GzqagAAYEQJ4Z/Z9uuaV5EkBFkBBlJU0aad+O+ZzIXv6r6dNHHsIhYpVzQhhQPl6SDiFVnbbH+oAAQEAh887fhHiSEjCAjyEiSMmKaLzx/DVppcsXM8ENZ7YNm+ytfljSRbGVOxCp16SBildIxCh+xCtiNISCAgEAw1tzxmVfL6PyOuzFkBBlBRuKRkaYeYpYtbGQePvTlPxnLaj+044ZTJqzM1+Lf0USsnBAPJ9oiIlbRnzMXXHjfntdSWQECAm2plLw7IuvekBFkJHRVjYxE0QSrlGaSihR/Wzw7lIiVE9LBaEcKp2Ui0lG7qhIPJQQEBILUOCHjV8gIMhJrewsmI8GbYJp+BcQaM7nCzPxD5vsiU/6KpPHodh4RK6RDRKwSvkSM5aGEgIBAG9b8i78/R0abYu8KkRFkBBmJrh4xVUIiyfPtQwe3/7txZZxHbzlt0khf7W5HEbFyQjycaIuIWKVwzlijTa/ftvdcKixAQKBFR1G5M/ltIiPICDISpYz4PaUcxK8W8Lc7KR0xFJFErNySQyJWEfaMRoyCAAICrfokk+qMFcgIMoKMhKkXTM3/zTM2Pjn7NeWE1WsmvyqrUSJW6ReRSIfLxyi9iFXA2uIOASAg0IhVv/u350lyZpgUGUFGupKRHJ8XzWsaI2vsQ3rojybz0i9997pXTMvoK6lWeEhHe/Fwoi0iYuXuOXPORdv2nUelBQgILC9drLtDpMhI0jKSg33srFdFLSOmprYw8nIUv1r4TPUzehGxckI6GO1I4bTMlHTUtMW3xLAAAYHGfUQmpspDRpLYDM8Yydx5YSQrjY6tMF/PW9803HP0a5JGiFghHcWUjhAG6pSo1rXFMBsWICBQx6p3/d0Fkjkna0UnMoKMICNVazD+l/TX75nOW//0zNvOnrFWX0Y6UhQPFwvaZN6aYqGf3dGOxm0xr75g24ELqLgAAYHqSn4o60UnMoKMFFdGFpbLX/yq6m4V/WcjYtVaOhjtSKHQz5t01C4m6zMKAggIVBfvdjBPRScygowUUEaGx/zV38hrH2X2nvB1GXvEtSKSiBXSkai+uhyxCrL7jO6QtVm6aQACAnGx8s7PXWykV+W16My2jGRlM8hI2m22xjyg7UOzee2nHv0jMyffdBbDQjrai0dGCtrE6nIiVpE0uQGvvHD73gupvAABAZmWox/IiLNFsrObQUZSabPR9tz3VWFjWESsWksHox0pFPr5l452TfZtiRgWICAgWWNvK2LRiYwgIzmSkaMT5VXfyX1ftffEb0k6nGThRsQK6UhUX7MesQrUXdk7iWEBAlJwVtz5uUuNdFYmC2VkBBlBRubbYu7Pc/xqgUf/yMxJehDp6EA8MlLQJlaXE7GKpMkdcsb52/ddQgWGgECRTwAv7hkpkBFkBBmJ/Zz1ld/Zr5Z1WnZbXEUkEav0CtpE6nIiVu40mYcSUn+yC4qMNTK6LbniCRlBRpCRGDg0ceCM7xal11qz+qTvyOoAox1Ih1vHiIhVqOLTmCFiWAgIFJQ1v3ff5ZLOTKd4yq6MCBlBRlySEaP79d3rykXpt757nSlb2S8iHXXikZGCNrG6nIhVJE2OsRmnX3DfgcupxBAQKCC+3yZ+hYw075h5xggy4oqM+KY48avFmttu7/jadbqgDSkdjHakUOgTsYqsPV6nM3ACAgLZZetWT8bc7l4tmDEZ4YGHyEi6MrJ/3K74p6J1X6+aO/m7kvbHXpMSsUI6whooEaswG7pDWy11KAICRWLNM2ddKdmXuV0LIiPICDLS5qZ+v7YPVYrWf20fMhVJX8i9dFSLR0YK2sTqciJWkTQ55bac+rrX7L2SigwBgQJR8XuGIingkBFkBBlJU0YKF79avHk1iJ4RsUqvoE2kLidilY0mh9hIyXjMhoWAQGHYutUzxm6JvIBDRpARZKTDNnf0cfaN25U/KGo39s87TviepD1ErJCORKtmIlaRbsg3un1wmy1RmCEgUABWP/OaqyWdFmsBl1gdyLS+yEgeZMSElxGrbUWMXy2y1fhqEcPKhHRUi0dGCtrE6nIiVpE02VVRXXijkT3l15V9V1GZISBQAHwFeQBQRAUcoyLICDISi4yYAsevqjqz4PuAiFXkRSQRKzelw6WIVaA3Gx5KiIBA/hncVjJ2IX6VcAGHjCAjyEhU7X1p7Nzf/qjo3dmj7zzxB5J9IRtFJNKRrhwSsUpPDtu82ej2ax+xPRRoCAjkmFW9c9dJOjn1Ag4ZQUaQkY7ba4zdpq1b/cJ3aMZYGfOAs9JRLR4ZKWgTq8sZ7YikyZmVjlpOHNm3/xoqNAQE8ny/9rwIH/yDjCAjeZORjOxhX9sFx66Rit2WXEUWUjoY7UA6stjkFKaTs8SwilePsgsKxLWP9Kx62d7dkk6Kv/dyZzUObSi6C9faDJ6ANmObcXYfvzh+37vPlEwWT4I4in1z4YOHnpPsmalLRw4uNZvZS99m77K2DjXXpn6AD60/6ZRTv3udKdOpFQNGQArEqtP2vDl++VjwWqb1jfVewchIAptx87ywRvchH9WHyVgr//5UxYOIVfMVMtrRVZNdaEsiO9XqhKP7976JDg0BgXzeqBMe4uQZI8gIMhJ9vWuY/aqOkkrbEj4IRKyQjuw22aUndtaujhhWkUpSdkFBeO+9vasm1uyTdJwbvbF7q3JkQ9Fd3MS0EtiMTXrvPDdx37vPYgRkORd+8cAzks6KVTpycJkQsXLrOBUoYhVkdUfnvCOn7BraOEuPln8YASkIK8dXv8UN+VjwXkZGYr/fMDKSwGYSPi+MPo98NBNuxRPDImLVeoWMdnTVZBfakshODba6Db32uOvpzRAQyNPNOfH4FTKCjGRMRjLQXmt5+GCLc3x7lDuaiBXSEbXhEbEKtPygoBh1KbugAAxu61vVV94naUOGygknV+XIhqLrADIX07IZ3ExkK/vN+H1/8Co6tOZc+MUDv5J0dsfSkYPTnIiVW8eJiFXou9Lw+NqxU55529kz9Gj5hhGQArCyp3yDZDZkyzcZGUnknpW5kZECP/DQ2PvozdoWPuFHQYhYtV4hox1dNdmFtiSyUyNbnV2/cmzNW+nMEBDIAcarjl9lr0hGRpARZESyYvar9vvIBttHRKyQjiw3OcsRqyCFqc9sWIWoTdkFOed9D/evOjqyX9K61p1EwWdMIqbVvJMgppXAZmy7nvrp8c/9wTl0aO258IsHnpL02obSkYNTlIiVW8eJiFUsjK3wyif/aOj0KXq0/MIISM5ZeXT4JknrFnWz6R9fGRlhZKTJvYaRkQQ2025l9vP0ZkFrI3v/MvEgYtV8hYx2dNVkF9qSyE5N9hitmbKlG+jNEBDIMEZNZr9CRpCRLmSkkOdFujJC/CogJWu3EbFCOjLd5JxHrAJBDKsA9Snkl7s+PbCqPLBf0tpQnU1nL7paMju5Kkc2FE0nwgMP497ML8fve/dr6dCCc+ED+3dJOjeLpxcRK7eOExGr1JjwZ83JO959ygQ9Wj5hBCTHrJ4beHso+VhQUkZGYl+VIxuK5l7FM0bi3YzV5+jNQu/3dEaMiFil2JZ4muxCWxLZqe49V2VVqce/kc4MAYEMYk2XD/RBRpARZMSFzWwXhLuxeV5yUxYTscpKQUvEKjXT6uzU8p19gDJEdUuEPPLeh1aumhw/IGlVLJ1EZy+6WjY7uSpHNhRNR0NMq9PN7Bi/793n06GF58IH9u+QdJ5rpwYRK/cuYZd2XyItdPwYVf1q0s6Zk4hh5RNGQHLK6onxW2KRjwVtZWQk9lU5sqFo7jGMjHS2GcuXzzs/52z0+46IVYptyWCTiVgFviCaNG+l6bE305shIJAhfCU0gwQy0n5VibU5K4UhMhJ0M16phIB02gfaiPYdEatMFrSpNpmIVaADEOh4eMyGlVeIYOWQEwe3rZ7srxyQtCLVjqazF10tm51ajUMbiq4zIqZV3zv/fPzv330RPVrnXPTA/sesdEGSh5WIlXuXHxErt45RyOZND1T6Tv7J7x0/So+WLxgBySGTfZVbU5WPBbVlZCTFj84DDzN1XjQUMr583v1ONOFGQYhYpdiWDDaZiFXgC6KL5g3MlObeTmeGgEAmSiLHZo5ARpARZCT82krmfnqzLm9wvv1825qHiFUmC9pUm0zEKtABiOp4dD2jJzh7x4QcccIffmnN1OzUAUkDtb2Ci1Vmxy8qgx8o8dU4tKHoOqyCxLSM0T+P/f2730CP1j0XPrD/Z5IuiurUJ2Ll3qVDxMqtYxRD82Z6Sv0nPzp03Ag9Wn5gBCRnTM1Nbq6VjwXPdPAv4IyMxLoahzYU3b2uICMjvm/48nl0u39bTWVExCqltmSwyUSsAl8QMTevv1yZvpXODAEBt++2Q5ksOls2KcsykhVHQEYckhHbqzLxq6j2+FzlPllZIlbZKmhTbTIRq0AHINlTiIcS5q5vZhfkh/V3fXH9XHlmn6T+znoW1yrMDLY5qfYS02reqWU9pmXtj8fv+4PL6dGi48Iv7P+xpEtTO+OJWLnfZCJWgduSUvPmyqXyKbuGTj9Cj5YPGAHJEXOV6c2dyceCizr2F/C2TcraX+154GEi98uMj4xYEb+KYe+2nVGMiFWCBS0RK7ePUYMLItXmHdtwb+9cDzEsBAScLLxsVEOUyAgygoyk1WS/oi/Qm0V8oyuVtzWqnYhYpVfQptpkIlaBDoAD0lG3cUsMK0cQwcoJ6971dxvmvNI+SX3xHVhiWg58IAcPFzGtCHflD8bv+/030qNFz4Vf2P8DSVcQsXKvOyNi5dYxsk6dLzW/nOuf80/96R+8/DA9WvZhBCQnzJW8LQvy0fSPB5H4alZHRrL0NwFGRmK/zzk7MmKJX8WEb+02IlYJFZFErNw+RpKLEasgv+yd7jGb6c0QEHCrohpKtt/LmowUeFpfZCQrMuJXKpb4VUyUTGmbJB/pSLKITKnJRKwCHQAHI1ZtW2SYDSs3EMHKAWv+xd+fUCl5eyX1pH/wsxbTKvADDxP9+MS0AvBP45/7/Wvo0eLj9Q/s/ydZXeXm6UvEKr0uhohVeudL6NaUbdl72Y53n3KAHi3bMAKSAyq93m0y6gn7h2dGRhxtb5L7mJGR5tdH0iMjlvhV7GdhmAc8MtrhfpOJWLVvjwvNCx6xCkKPV/I305shIOBGPzPYba2HjCAjyEh7GVF8MuL76v0ivVm8lHzdL6mCdERVRKbUZCJWgQ5AFiNWwVZNDCsPEMHKOKvfs+1Ev+zvUZD4lXXlBCGmlfIHcvRwZWs/G0mKLqb1nfHP/f6b6dHi5/UPHHhE1l6b/KlHxCq97oGIVXrnSyytqVRUetnOd528nx4tuzACknH8ij8omZ5AquDcyIhj1SQjI7GvypENRXavjSyiZe12QUKd5nzUjdEO95vsUsRKImIVar/E2ppSj/zb6MwQEEizzKyZ/SpEAeeEjDhacCIjyEjY+2933xepqFcP0JslJSD+/bIqIx3h68VCR6wclMO8RqyCbd4O0pkhIJASq+7adoqV3th1AYeMICPISJoy8p3xv3k3M7okxGNDpx6U9I+pVc0Of2cg1SbzhfLAbSmqdNRx9es/98Jp9GgICKSA7/uDkkqRFnDICDKCjCQqI0Zi9qukz3wT1T4nYpUb6XBVDl04hZKPWAU57J5vS8SwEBBI5SZqO5kJAhlBRpARh2SkbMtzX6I3S/hsn6k8IGmuMNIhEbHKoBwWOWIV6BhZZsNCQCBxVv7eF06VdEU0BVw8tR4ygowk99Ez+owRz3xrfPsfHqRHS5ZH33XaIUnfiaXwJWIVww2BiFXhpCPYjrjyos/uOYMeDQGBRAuYuTuiO34hC05kBBlx9nBlbB/7PHwwvVM7yMxjRKxyIx2uyqELp5CbEatAV3HF0xY6MwQEEi0L4xp6REaQEWQkIeZK5X7iVylRnh54QNJsLqRDImKVQTkkYtX9Zn1DDAsBgcRY8Z7PnS7pMucKTmQEGUFGwjTpG6Pbh47Qo6XDk7+7/qhkvxW68CViFUNnTsSqcNIR0Y4wspe9/u/2nEmPhoBAEget7A0lX0khI8gIMhLtzZf4Vfq1od1GxCon0uGqHLpwCmU3YhWoQ/etuZ3eDAGBZK7flIcckRFkBBnp8iqe6ZsjfpU6pYEvSZpxXjoC1otErNySQyJWCW3WWGJYCAjEzcDvb3uFpEsyW3AiI+2blaU2d/6BCi0jxpqvH90+NEKPli6Pv3PDsKRvxFkfJ1G4EbFy6xi5JR0ptii5zb5h0337z6JHQ0AgRkrWphC/Qkbc2o1ZkxGeMbLsPDaG+JUzZ6fZRsQqA9Lhqhy64EQtpSNnox1N6CmXeSghAgKxXttGg7ksOpERZKQ4MjLdb+xD9GZuMNHrfUnSlGsFbaq1HRGrQG0hYuXQMWI2LAQE4mPgXV94pWQuzP33ApARZCTHMmKlh4/83e+N0qO5wdPvOHHMWH3dhYI2oZI+hk6UiFW6opr7iFXbZvhWF13wdy+eTY+GgEAcB8sr31lb+RTgS8pdyIiThTIyUngZ8WS2C5zCekouEkfEyvmCtlFbGO1wSw6tJGuP/bfQFt8vZSQhAghI1mg5xIiMJNNPZllGcnpeZEtGJlfM9X6FzswtKpP6sqSJJAvaVGs7IlaB2oJ0uHeM6qWjrhtGQBAQiJr+d9/3aknnZ7ZIRkYc2I0FntbXHRn56sHtQ+P0aG6x492nTMjar6VVuBGxckc6JCJWbuyIumYsiEdrLtj02T2vpUdDQCBCSjJ3dFY8FUhGUr33ISPISPsNGSNmv3L17IoqhkXEyvmCtlFbGO1wSw4bRawC1UqGhxIiIBD17XGo++Ip50WnE19eR0aQkaYbmhz3/H+gL3P0jOq3X5HU+egUESunC9pGbUE63DtGnUhHzft5KCECAtGx5q77z5G0KdriCRlBRpCRhD/+l/U3754QOMmjt5w2KaOvxlG4EbFyRzokIlZu7Ii6ZgSLWAVh0+v/du+59GgICERAxa/cGW/xhIwgI8hI3B/fN5b4lfvnz/aoOgciVo6IhwtOxGhHa+mIuC0V6zMKgoBANPdEE35mB2QkIzKSld2IjHS5qrGp2b6vCZxm3djkVyWNdlpcE7FyRDqIWDl7jOKSjrqa6Q56MwQEumTVXdvOk1V3w4kdF07ISPz9uKP7GBmJelVf1vahKYHTfPc9r5iW0VfCXvBErNyRDomIlRs7oq4Z0UWsgnDOeX+77zx6NAQEurlwKxF+oaqrGgwZQUaQkU5XZT2f+FVW+lyrbUSs3C5oG7WF0Q635DDOiFWQrXsihoWAQHeXUVxTyiEjyAgykpSMjE72lL9Bb5YNxleNfU3SSKq1HRGrQG1BOtw7RulJR+25z2xYCAh0waq7tl1gpHPcrsGQEWQEGWm5Kmu+qL9+zzQ9WjZ45m1nz0j2yzGW9DF0HESsUqhxlXqLihuxan+C+Hr1BX/30gX0aAgIdHJZVcxQ4gUcMoKMICORttmWAsysBG4dfWO2EbFyRDxccCJGO1pLh3XggDT4lW/FKAgCAh3WQIOpFnCFlZF4Ph4yUkgZGZ6cKX2TzixjXe+Rk78u6UhSxXWqlkDECukI0xRHIlaBLgerO2Rtlm42CAikz8o/2HaRpFc5U8AVSkZCthcZQUaaL/+Atg/N0qNli0f/yMxJ5svuFJFErNKscYlYORixCrRvzCvP+/u9F9KjISAQ6pIzAYYOkRFkBBlx+tywPHwwqxgTwcxlXV/cRKzSqnGJWLkfsQpU5Fq+jI6AQLibnzW3ZaLoREaQEWSkWZuPTsz1PkJvltGb45FTviXpcPKFfnFGO5AO945RpiJWwT7PncSw3L1rgmOs+P37LzXG/ji6CzqlfiRrbU6qvTa+C9Xv6ZPfv0qVvpWypR5Zr9Tk7wyWCy3us8IrHbI9/c/n9xP6y08l65vFKqZ+udoKx9S8uT7bsfCzrZjlv6/+lun89mraMr+Mb43kz//On192obryjfzFbUiyx362vmTnjCplo8qcOfOi80/dcMbL12Wuz3Pp8raONc/m5T4ZcTNsfk8Q4/mXPvG7p/+Uu5Jb9LALHMSzg9FdgCad3q6rzZqMFckhP2wH+8a2khHjqbxyveZWHSe/b4Drxx1OkOwJ+f14Rsv+PGnMsQLfVAvD/HK2wXKNznRrG2yjSiyq/3xu6rax7LV5+ahZ1i5VXNavaqe/tH3rS9bXkeef14YzXp6dP7Q4LB5IB9KRlpXaSmlIEgLiWqnLLnANa4xVPA8fzFxMqwBfUu4yplVesVaTJ5+tmQ2nIR+Q0ilv2lh2t8u1+bl6+YV/m/oLrMF7janbllkU+oX/xg8eUnl6pvlF2HHxxSxWSbcl1RYRsWp+7ifzkJ0hYlgICLRhxe/df7mkMx22AmTECRkxmt3wMs0cf4ZsTy8XDmRITkIsZ0wIOWnxmqkWDNN8PcbUCIi10sju3REUkcxilWaNyyxWWZ3FKrJb8emb/nbP5XTICAi0OiCeSWHGBmQkSzJivZKmT3qlyqs2cMGAA+d1EJnoYrlmr5k27TL1stFoxKORlJiln42n4Zf28KDAAG1htMMtOczLLFaR1VbWDtJfIyDQjK1bPSt7e7qNQEaclhFjNHPCmfL7VnC9gEOntIMxrEaiUf/eIDGsQ4dUnplOzxKIWCEdYZpSyIhVgJYZ7w5ttdS8CAg0YuCZjVdKellmC2VkJPYPO3Pcy+X3reRigYzLSavl2sSuOolhGdN5DEvzoyBJVqBErEL6HRGrQkesAjTPWHvq687aeyUdMgICjQ5GyTj8wJyUCntkZJHKynWqrFjHhQIOnrdBpCPociG2ZdqIidHyEY7QMSyj4ZdeSqYCJWIVQsiIWBGxCneMjM9DCREQWM7WrZ5kt7hfN6fYwCLLiDGaXXsq1wk4fMpGEMNqG6Vqs+6W7zUN/q2AMayjmpueiqfSImKFdHQgHkSswgu8Nbp9cJst0VkjIFDF6t9uvFoyp9UWncgIMnKszeWVx8uWeGwP5ElO2l2nLd7fVQyrmXjUL1uqkpCFURAiVukUkUSsGO2I5Fo65dczL11Fh4yAQBW+rY9f1f8FHBkpsozMrT6OiwScluRg0pGlGJbqYlh7ut9NRKxCFJFErJCO6I+Rb0vEsBAQWGRwW0myWwIXyshIoWTE7x2Q7enjOoEMeEiaMawgoyRhY1hLoyATR45qdnIyswVtu7oS6RARq4xHrAKu5PZrH7HECRAQkKRVK821kjm5o0IZGcm9jFQG1nCRQE7lpN112OL9JsQzQwLFsEyDZZe+ByJ5GtkdcBQkI9LhSo1LxIrRjgSvpROP7N59DR0yAgKSrDqd/ar+r3jISB5lxO/p5yKBLBhGQOlotZzpbFuRxLAaSYnqYli7M1HQNmoLESu3imukI71jZHwRw0JAQNc+0iNpc+TVNTIS2Ntcb7PtRUAgSx4SwXc/Uo9hVY8yV8Wwjg5rdmLSyYK2UVuQDveOERGr9AXeymwhhoWAFJ5Vpx9+s6STYi3skZEYNptcm63HZQp5lpN211mL9xvTwnG6iWFVv1YbwxrevZvvdYQuIolYMdrhjhxa6YRDz+99Ex0yAlJorKfBRCtsZCTTMgLguGEElI6oY1gBRj66imF5wWNYKRXXjHa4VVwjHc5JR80mPY+HEiIgRea99/aq6/gVMpJ3GTG+5VqBjHlI0jEshZOR0DGspVGQyaMjmpkYd6JwQzrcK66JWIVrXlqbtFZbNm7bxfSSCEgxWTl7/FskHe9EYY+MOCsjpjzDxQI5l5MQ4pJaDGvpuyAjUTwTpIvimoiVW8U1ox1uyaFtd5oee2GDN732ejpkBKSoODAEiIy4LiMeAgLZMozOxCLwa82WizuGVTUb1u4EYlhErJwpaJGODEtHK1H1vUEBAlI4Brf1yZpbnS/snf9qQ/5lpDQzwfUCGfSQBGNY7SJaUcewhkc1Mz6WaF2JdIiIFRGr4JsMcs4YbX7VR3/NNJMISLFYucq7wcpuyExhn4nvWedTRryZCRm/zEUDOZeTEOLS8v3tfhFNDCuyL6PzoECnCtpW0sFohxtyGDBiFYT1K9evfCsdMgJSKKz1hlzrR5ARd2WkZ2KYiwayZBidiUXg15otl2AMq9vvgRCxcqagRTrcl8OOIlaBajFmw0JAisT7Hu6X7C31BScygow0e3PP+CHJ+lw7kDEPcTWGVX9xholhHRsFmRod0/RYyBgWESunpaNaPIhYuXGcuopYBeuk3nH5thdX0FkjIIVg5djkTZLWtSo4kRFkpPrNxvfVO3aQiwdyLichxMW0GvkIID2LoqEW4lH/mlfzX6AYFhGrDqrLdKSD0Q63pMPG3hYrya4ZnyndQIeMgBSChfhV0GoVGUFGJKl37LC82UkuIMiKYYQTi9ARrYDbbRvDmr8YQ8WwvPYPJSRi5UxBi3S4L4dxRawCfTi/QgwLASkAd316wEg3d1qtIiPFlpH+I7tlKrNcR5AhD4lALGKNYTX5OcBsWNNj45oeHQ1UVyIdImJFxCq4W8Qz2tFkhebW13123yo6awQk16ywa262smujqFaRkeLJiKnMaeDQizIVZsWCPMlJh19ajzqGVfUl86bbq49hvbibiFXo6jId6WC0wy3pSChiFWSFq+TP3UiHjIDkfZdHNNSHjBRVRkx5RgOHnpMpz3E5geuGEVAsQkhHoO10GMNqto4WMayju19yRzoY7UA6HJbD1CJWQd5hDDEsBCTHvPehlTL25uhrWWQk2Tan70CmPKeBQ8/Jm5vmuoIMeEiMMSwT5KGDzV5vEcNqOBqyPIY1Mz6pqdERpIOIlYhYhdhkeqMdzd76dmJYCEhuWTE3e4ukVfEW3MhIKkaQwqZNpaz+g8/Lm53i4oIcyEkMzw7pJobVSmAWBaS0FMNKscYlYsVoB9LR9VtX+n75ZgECkkusBpOtZ5GRvMuIUUUDR55XaXqC6wscvkaCiEWn0tFsmQhjWMtGQ2p/N7w7ZgFhtAPpcFwOU53FKrq3EsNCQHLIv922WtLb0qtnkZHcyojvq//ICypNjXKdgcOXc9gpeNusI8kYVsPXlkZBZiYmNTUScQwL6WgpHkSs3DhObsxiFc1bjXTzq/728FoBApInVkyWbpUU7mmbyAgyEqKH7R9+ST2Tw1xskGVLCScuQdYRdQxrceSjfjasl2Ks6IhYMdrhnnRkLGIVhIEVc5Nvpx9GQHKG7W5oDxlBRgJ0uH3De9QzcYTLDTIqFp1KR7NlYohhLZOWqhiW7fzaZbQD6XBdDnMQsQrShQzSXyMg+eEPv7RGMje4X89mWUaSrfVdlpG+kX3qHT3AdQcOnv75jWHNTk5pamQY6YhIPIhYuXGccjza0ayDuemie3+zjs4aAckFA355s2QGYik6kZHmO6LAMtI7fkh9I/u4+CCLlhJOXIKsw6UYFhGrptLBaAfS4cB+6Z/p67+VfhgBycft1FY/4CbGqhgZQUaq6Jk4or6ju10fwgLEojvpaDfSkVgMy9Pw7pcaX2+MdiAdGZDDQkSsghTGhtmwEJAcsP6uL66X0VsSNgZkBBk5JiFTI+offklYCLhzepvOXguyXKoxLE+zUzOaPHoE6QggHkSs3DhOBR/taLa5G7HevLAAAEArSURBVDb+rxePo7NGQDLNtLRZUn+KxoCMFFxGSlOj6j/8guT7XJCQESFJKYa1OJqhFuJRv2xVDMsrafil3USsmkgHox1IR0akudcrGWJYCEjWb66dzH6VZRlxr39HRqTSzIQGDj8v41e4JiHlczjEa0nHsJr0ZzXraBXDUvVsWESskA635JCIVaiuihgWApJd1r3rKxuM1ZsdNYaYVm2QEUdlxJubUv+h38r4c1yckPLpm4EYlqn/OVgMa25mVhNHDhdSOqrFg4iVG8eJ0Y6O23L9OZ956Xg6awQkk8z0zm2R1Oe4MaQiIw5XRs1lJEttbnbBl2c0cPC3MhUkBFwXkpRjWM1+DjIb1ksvJbPfiFiJiFVGpcNVOVyit8eazXTOCEg2d66xMQ7hZVtGeOBheueFqcxp4NBz8uamuUghpXM0xGtOxLDq/r9NDGtkz574ejciViJiFXKTLkasMiCHxvrEsBCQ7LHmvQ+dYK3e5ErRiYwgI7USUlb/oeflzU5xsUJKp2eWYlhqIh5Vy3qlpRjW7JwmDkUYwyJi1bzwJWJFxCquthjzptd9dt9JdNYISKaozM3eJqMel4pOZAQZqW6ksRUNHHlepZkJLlhwVEhcjGGZJlJi6mJYu2Opt9OUDkY7kI4snr8dt8Wqx/rlzXTOCEimsNYMulN0ZsVzkJHE2+z76j/8gkpTo1y0kPA5GIN0JBLDaiIpdTIyvG+frM3uX4uRDveKayJWKbTFMhsWApIhVr9n24myusbZIhkZQUbqCrL+4d3qmRzm4gWHTs1sx7DKM7OaOHQoc0UbESu3jhMRq9Tbcu2mT+4/mQ4ZAckEvi0NphO/ckhGYmwzMhJPp903vFc9E0e4gMEx6chwDGv3ntD1dprSwWgH0pFJ6Yj3WirZnvJtdM4ISCaw8jIyZMfT15GRWvpG9qt39AAXMSR0XShHMayFURBvaTasvXtlfd/Jwg3pSK2gDb9JHhSYigQtrNrIDgoQENdZdde2U2T0xozkb5ARZGQZveOH1Teyj4sZHLhcshTDWvjn0ghIeWE2LCJWzatXIlaMdjgoHXWrv/o1n3rhNDpkBMRpfPUOSirVFpbICDKSLRnpmTiqvqN7XN+BkH3DCCgTGYthedUxrN2p72VGO5COqHwx9eOUzing9XqGGBYC4vz9dKh1nZklEUFGiiwjPVMj6h9+SVgIxH/65yyGZepiWNZHOohYMYuVY20JtWprmA0LAXGXle/9wqmSrghWZ2ZtVAQZKaKMlKbG1H/4Rcn3ucDBITkJsVzaMay5ssYPHExcPIhYuVFcE7FyUzps+IWv3PjZPWfQISMgTmLL3h2h9mlmI1rISJFkpDQzoYHDL8jYChc5xHSOB5GJDMew9uxJRDoY7UA6uvXF1I+TC6dA44WN5vwt9NcIiKMG0uEDazL9fRFkpAgy4s1Nqf/Q8zL+HNc5xHR65zyGFfEoItLhXnFNxMqttnQkHbZlF0UMCwFxjxXvefB0SZdFW2MiI8iIOzLizc1o4ODzMhUkBFyQkxDLpRXDmn8wYaVc0diBaKa3JmLlVnFNxMpN6bDxLHzZa//XnjPpkBEQx26Qdijy8g8ZQUZCtTmB3V6Z08Ch38qbm+Gah4jP4SAykbWHEi49mHBkd+cxLEY7kI6ofDH14+TCKdC5oZiSKd9Of42AuIUf89AcMoKMdLIjYtg3plJW/6Hn5c1Ocd1DxKewyzGs+ospYAzL8yQZjezfJ1sJHsNCOtwrrolYudWWqCNWgRb0mA0LAXGIgX/55VfI6JJ06kxkBBlJXkaMrWjgyAsqzUzQAUCKchJiua5jWNX/DD8bVtAYFhErt4prIlZuSkd8ox1tF3vDpr9+4Sw6ZATEjfti2Y8+foWMICOuy4jvq//wiypNjdEJQETnaRCZcCGGZTqKYQ3v2d1SOhjtQDq69cXUj5NL0mHj2f/W56GECIgze9EOuldnIiPISBIyYtU//JJ6JkfoByCiUzQLMawW720Vw9q3T36lgnQ4WlwTsXKrLS5JR22PQAwLAXGAgT/8witldaHbdSYykqyMuHk/j01GrNQ3vEc9E0foECAFOQmxXBwxLGMCx7D8iq+x/fuJWDlUXBOxclM6UotYBdvoRa/99Itn0yEjIOnil+4MfldERoohI6aQMtI3sl+9owfoE6DL8zCITDgUw2ryB4hlMaz5BxMO796T8D4lYpVJ6XBVDl2SDpveyVWSGRQgIKneLs3CUFxGCntkxBkZydQ+DrhfescPq29kHx0DdNuxxiwnMcWwjGnxUMJjMazR/fvkV8rFlo6UOkIiVm61JWvSUbOJikVAEJD06H/3A6+W7PmJFsnISG5kJK8PPOyZOKq+o3tc/2CQKzkJsVycMaxm61kQEK8k37ca278/uRKbiBURKwelw+2IVYBNGF2w6ZO/fS0dMgKSzn2wx9yRapGMjCAjjspIz9SI+odfEhYCnZ1nQWQi6RhWI9loEcOqGQ2p+neXDyUMVNIRsSJi5VBbshixCrIJ43k8lBABSeuCDTsTAjKCjBRHRkpTY+o//KLk+/QV0MEp5loMS+FiWMvEpSqGdWC//HI3MSwiVqE2ScQqlbbkUTpqF2M2LAQkBfrueugcI21yskhGRhp8gKx4Tr5kpDQzoYHDL8jYCp0GxCwnIZZLOoZV9SyQhRjW6P5OvitFxCrwJolYpSodmY9YBWPTxr96/lw6ZAQkUXq88p2OV7LISJL7GBlpKiNeeUr9h5+X8efoOCDEeRREJjISw6peLnQMi4hVJqXDVTl0SToyNNrRtPewHqMgCEjSF3NcU7AhI7mRkRjbnDUZ8eZmNHDoeZkKEgJhTiGHYljG1C3SRQzLeBo9sF+V8lw2pSOl4pqIlVttKap01HGHAAFJilV3PXielRIYdkNGMr2Pefp6TZtNpayBw8/Lm5uhE4GY5CTEcmFjWM1e6ySGZTxZK43t29e+pCNiRcTKQekoSMQqCOec9+kXz6NDRkCSub6NHUq+xkZGkJHsy4iplNV/+AV5s1N0JBDg3A4iE9mNYQ3v2SMiVmlKR5dVKRGrLt+QudGOZkUhMSwEJCkBMben6wXICDKSXRkxtqKBoy+qNDNBZwIBTpj8xrDGDh5QZa4sJy/YQkSsGO2I7BQomnRU4VuLgCAg8bPqri9eIOkcd7wgyzKSmQoIGYm8x/bVf+QllabH6FQgYjkJsVyoGFarBw1WC0aIGJYvje7bQ8RKRKxckw4iVqHutq/e+OmXLqBDRkDiPb+NhoKekchIu2byjJFiy4hV//Bu9UyO0LFAi3M3iEzEHMNqJBRG0cyGtWdP2pchESvHCtqk20LEKoKeyvqMgiAgcQtIB7NfISPICDLS9ObRN7JXPRNH6VygxWmbcgyr7Xu7iGEdOKjK7GyuCtrQmyRilUpbkI4I2+KbO2RtlgoYBCRLrPyXX7xIMq/qqjJERto3k6evF05G+kb3q3fsIJ0MRCQnrZZrE7vqJIZlTMgYVmkphiWvw4cSZqNwI2LlpnQQsYq8La8873+9cCEdMgISz/m27IEzXVaGyEiAJiIjRZGR3vHD6hvdT0cDLQSglXQEXS7EtoLGsGp+FySGVfWzMfOzYSEdiVelRKy6fENBRzuatcXwUEIEJD5ui60yREaQEWREPRNH1Te81/WHmkAql1IEMaxGM1o1XVeLkY+WMay6izJADGv84KHoY1hErLJf0CZ5CiAdXbfFSncSw0JAImfFex68VFZnJVIZpiojWanlkZG8ykjP1Ij6h3cLC4Hu5KTded3i/SbEl9WXxbCaiUf9stUxLKORfRGMghCxQjpExCrFtpyx8VMvXUKHjIBEfYMb7PCNGZMRnjGCjKQvI6XpMfUfflHyffoeUBFiWCN79iIdUVelRKy6fAOjHeFLRR5KiIBEe1YaK3t799dIRDKShyIZGUFG2knI7KQGjrwoYyt0QRCBdLgYw1oaBRk/fETlmRmni2siVm61Belwqy1WkrV2iBgWAhIZK97zpcslc2a052sXlSHfF0FGCiIj3tyU+g+/IOOX6YigAzlpd962eL8xLRynkxiWabBs1UMJrTSyd69zhRsRKzelg4iVG21pcDxO3/TJPZfTISMgUd3ZhuLta5ARZCRvMhLd9eHNzWjg0PMylTm6omL3wwGlo9VypvNtNd1m0BhWIynRvIDMx7D27imYdHRZCRKx6vINjHbEcbitqQwKEJCu2brVs0a3J3duM5MWMpIHGTGRyoipzGng8PPy5mYERfeQCL77kXoMq/p7IUujIBOHj6g8M51acU3Eyq22IB1uyWHgj2XMHdpqqa8RkO4Y+O0FV0p6WfLXH9P6IiP5l5FwElJW/+EX5M1O0TFBCDkJIS6JxbCqX/NqZ8Pas5eIFdJBxMqR49Thak4992UvXkmHjIB0eT/rfkYDZAQZQUYarzTstWFsRQNHX1RpZoLOqZg9cmdiEfi1ZssFGPmIKIYV60MJE5eOLqtSIlZdvoGIVVqH21gxGxYC0gXH4ldb3Lo+kBFkpOAy4vvqP/KSStNj9FGF9ZCkY1gKJyPdxLCOHNXc9HSyNTQRq1TagnS4JYeRfCxrj/1ndPvgNluis0ZAOmLgpfOvlnSau9cwMoKMFFVGrPqHd6tncoSOCjqTjqBCkVgMq7Q4EtLwy+hR32eIWKUqHUSs3DhOkUqHrVnLKb8YeekqOmQEpLP7mO0ZSqroREaQkfg/QFYOYUAZsVLfyF71TBylsypWz9yZWAR+rdlyccewqh9K2J2AELFyqy1ErNxrS0zSUbcNSwwLAemAwW0la+2W2As4ZAQZycs+TklG+kb3q3fsIH1W4TwkwRhWu4hWwyefdxLDOjYKMjF8VHNTk9EVVUSsUmkL0uGWHEY62hGM26/danvorBGQUAysXXGtpJPTLpKREWQk0zISY5urr43e8cPqG91PxwXhpCOwULRyHNN8Ox3OhiV5gWNYRKzclA4iVm4cpxgjVkE48cDLX7iGDhkBCXvCDblWJCMjyEjm9nGCT18vTRxV3/Bed26gEPM5G0IsQke0Am63bQxr/hztIIbVajYsIlZutYWIlXttSVE6ansE6xHDQkBCsPWRHkmbgxdPyAgygoy4ICOlqRH1De8WFlIUD4lALGKNYTX5OUAMa3JkRLOTk8GKKiJWqbQF6XBLDlOIWAVZ4RZiWAhIYPp3T7xZRid1VjwhI8hIOxnJTHWXSRkpTY+r/8huydpZejPkpGNxiTqGVTW60XR7DWJYRKzclA4iVm4cp5QjVkE44dDpL76JDhkBCXbfsv5gNMUTMoKMNGom0/rGvWpvZkK94yPvldERerTc9tThxKLj0ZIwIx/zrzeKYTVbR8MY1vx0vHt2J1BcE7GKTToY7YitLY5LR+2mfB5KiIAE4b339spqc/TFEzKCjCAjCa76ubmPX/lZGe8aSXsEOfaQuGNYbWSj6estYlgNR0OWP5RwcmRUs5MTRKxSagvS4ZYcuhmxCsSWjdt29dFZIyAt6fdPe4uk4+MtnpARZKRRXYKMRLZqaz4vGasPnrtT8q+S9Cy9W5HlpMNnh8QVw2q1vUUBOfZdkJHdUfkz0hHL6olYxXqcMhCxCsIGf2Tt9XTICEjr+5WNaKgMGUFGumoiMtLNqo38bYs/3P26Z+X3XCXZnfRwueuxA4pFCOkItJ0IY1jLRkNqf9f9U9GJWEW+ekY7Ym9LDqSjtti2dpD+GgFpzuC2Psneml7xhIwgI8hIBKv+zeRnb3+s5jcfPmePZrxrJP2Eji6PHhJjDMsEkI2mrweIYTV8bSmGNTU6qpmJ8eR6dkY7kI6U5DDDEasgH2jzqz766346awSkIf1rV9wgaYMbdVl6MpJa0YmMICMRrNpIn2u47Ec2HtGAuV5W36a3K6KcdBjDaikbAd8bNIa1OPJRF8Oq/zI60pHc6olYxXqcchKxCvKB1vev7HsrHTIC0uTWYocS3qCTMhJNv5JlGclKLY+MNFq1sXZ702W2bhzXZP/NsvZBerz89NzBxKJT6Wi2TAwxrGXSEiSGRcQq8tUz2hF7W/IWsQrygWyF2bAQkEa87+F+I3OL+3UZMpLpIhkZiXk/m6cnPnv7jpaLfOzsGa04NCjpM3R8efKQsFPwtlmHMzGskqbHxjUzPhZNz8xoB9KRkhzmPGIVpHt5x+V//uIKOmsEpIaVk5WbrLTOiQIOGUFGkJEO12LvC7Tg1uvKunvjeyTzF/R+hbKUcOISZB2xx7C8qhgW0hH56olYxXqcChSxCtL/rBleZW+gH0ZAavCtGXKy6ERG2r89Y0UyMhLffvZaxa+Wb8fq7o3vl/QBesA8i0UU0tFsmaRiWF5ns2ERseryBkbEKrXDncGIVaB7lCGGhYBUc9cjAzL2ZueLTmTEoUOEjLi2n63VzvHP3L4r9Cbu3nSPrH2/Q6UadHy6mM5ea7acQ7NhTY9PaGZstLAFbderRzpiL66LHrEKyK2v++y+VXTWCIgkaYU3drOktZkqOgshI1nxAmTEjf0cZvSjjnvO+wtZ3SWpTI+Ye0sJKCfuxbCG9+xFOkTEyqXjRMQqNKsq03M30g8jIMfON8/rYEgMGYn/OmZaX2Qk+H72fW97V6u8Z9NnZbxBSTP0inkTiy6ko91IR6IxrN3uF7QurJ7RjtjbQsSqm01ZYlgIiKT3PrRStln8ChlBRpCRjMjIE7N/s+UXXa/qQ+c+KM/cLGlckFEPiTiG1er3CcewZiYmNT06ymgH0pFKcU3EKrI71tuJYSEgWuHrFkmrIj21XJMRx9qMjCAj0Z9TdltkK/vgxm/LmOtldIRqPq9CklIMa3E0Qy3Eo37ZqhiWV9LInj1pX2xErFLcRNLHiYhVLKz0p2duVsEpvID4VoO5LzpDNQMZQUayJyO2m+9/NOJDG38i410jaY8gS7YR7rWkY1jLLq4G62gVw5LpbDasDBTXRKzcagsRq3jbYi2zYRVbQP7tttXG6G2FKjqREWQkfzLy85m/vv3Xka/1g+fulPyrJD1LYZ81D8lADMvU/xwwhjU1penRkcwVtF2vHumIvbgmYpVkW8zNr/ror9eqwBRaQFbMrLhVVik8lTLLMpKVfgMZKZCMbIttzXe/7ln5PVdJdidVfd6EJOUYVrOfA82GtbsY0hGquCZilbp0ELEK05aB/v6BtyMgxb0rOTAEljUZSb69yAgy0grfmvtj3cCHz9mjGe8aST+hks9Evx7uNSdiWHX/3y6GtW9v9AUWEausF7TJHm4iVl23xcgOqsAUV0D+8EtrrLE3uFXjISPICDISkn+e+cw7fxP7Z/vIxiMaMNfL6tsU+FnxkCzFsNREPKqW9UqLIyCzU9OaGh12vrgmYuVWcU3Eyq22+NJNr7z3N+sQkIIxYMxmSQPu1njICDKCjATYzrbEPtPWjeOa7L9Z1j5IdZ8XIXExhmWaSEltFKvj2bCIWKW6iaSPExEr99pS9Zb+ftNzKwJSuHtRi/iVc/UdMoKM5E1GojnsNu74VT0fO3tGKw4NSvoMFb3rJ10M0pFIDKuJpEiS5y3KyPC+PeE6PCJWuS1oYzncRKwibUvTQ+t7hZ0NyxTxQ6+/64vrp3t690nqrz092pw9zmEz1gybwRPcZvAQ2WxciLbr9v546q+3XJ5S440+8NRHJPsfKPYdP8GqC6jFf1e/1u1ydvly1ee2bfK69Y/9t7DM4s9Vr9n616xUnpUqc5I/p7Muu0IrN2xIrSuwsSxsE+x78nUrj2Q11uZuv6TVloBvmTMlc8quf3l64Z47VcgRkOnevs218rFQqrb466yTf2zm6esd/9Uh+g/n0HmTtZGRDtubZPxq+cat7t74fkkfoNB3+QSr/1XOYlj79rTu+FzoU4lYxXVzim41RKwibUu4t9he+baQMaxiRrB8f6irAo7viyAjyEhMLh24vVaV8hdSb/fdm+6Rte9XZoadiugheYlhLXwZ3at6KGHVbFgJfbcj2s6WiFVqLkXEKtK2hD+0S0sX9aGEhROQdf/mKxtkzJsjK+CQEWQEGYmpiS3aa/WDqc8OveBEm+857y9k9B5JZar9PMhJiOUSnQ1r4Z9LIyBzMzOaPHqEWaxclo4Ii2tmsXKrLZ1LR/077PXn/PeXjkdAcs7MnLZI6oulgENGkBFkJCkZ2e5UWz+06TMy3qCkGap6106iIDKRsRiWVxXD2rsn0j1GxMqt4pqIlXttiUY6aug1PeXNCEju70dRPXwQGcmzjKS2n1OVEcfryCUZ8WV7v+BcGz907oPyzM2Sxin8nev3Y5aThGNYpmo2rP17IqnmiFi51RYiVm61pZuIVbDFTOFiWIUSkDXvfegEWfumxAs4ZCRzMhLNfSRrMpKZ74t8b+qzt+x2sm0f3PhtGXO9jAo3o0m+5CTEcmnFsOYfTFiemdPEkcPx93NIR+zFNRErt9oSXcSq/WJGetPr/sczJyEgOWW24t0mqSfVAg4ZQUaQke5aZs02ucyHNv5ExrtG0h6BI31cEJnI2mxYpiqGtTe+/oyIVazFNREr99oSi3S0X3FPxevdjIDk9TZk7KBT1TQygox08/YinheSr77KF53vbD547k7Jv0rSswiAMzeAmOWkmxhW/TUWLoY1sn+vbJvik4iVW20hYuVWW2KPWNlAh7RQMazCCMjq9zx8oqRrnK2mkRFkJBOHKPXz4ruTn7htr7LA3a97Vn7PVZLdSfWfRTkJsVzXMazqf3YQw5qd02SDGBYRK7eKayJWbrUlyYhVwLvrtZs++ezJCEjOmOvxBxVr/AoZQUaQkfi36Hj8qp4Pn7NHM941kn5ClZ92xxFEJlyIYZkOY1h7OuuLiFjFWlwTsXKvLSlFrIK8vVSp9NyGgOTt9mNdnGEAGUFG2rU5K4cokY1WvLLvfvyqno9sPKIBc72svo0IpN1nZCGG1eK9jWJYnqdjMax98q0fcSdFxCo1lyJiFWlbXIhYBWRQBaEQArLqrq+eItk3On5nREaQkejbmyMZMdJ3xv9my4FMdkJbN45rsv9mWfsgFpAlOQmxXBwxLGMCP5SwPDenicOHkY4Ui2siVm61xbWIVbD7nL36NR974TQEJCeUe+2gZEoZuhMiI8gIMrJ8XdmKX9XzsbNntOLQoKTPUO2n1TEEkQmHYljLrqP6Zef/f/7BhKP79nRRXBOxSl06iFhF0pbwb0kmYhW0Li/12kLEsAohIMZfmFkgI885QEaQEWSknrlSJYPxq3q2XlfW3RvfI5m/QAjS6hMyGsMypsVsWPMxrH37js2GxWhH7G0hYuVWW7I42tGCQsyGlXsBWfner50qY67IQNWOjCTVFMfajIwE2EfGfHvss1sOKxcYq7s3vl/SB7CBLMhJiOXijGE1W09VDKtSLmvi4EGkI6bimoiVW23JmXRUc+XGe39zBgKScaxfvqP950RGCiUjoZqBjDhxQKyyHb9qxN2b7pG173eoTCuCYQSUiezGsEb27Y23Ck+g0HepuCZi5V5bMh6xCtRR+ZWeLQhI1gVEXsihLGQEGWm3cFbuE7mRkbk+b/ZLueyg7jnvL2T0Hkll5CDJ0yy/MazRA3tlfT+5apOIlfvS4aocxnpoMzPa0bAtnsl/DCvXArLiPV8/XcZelvkiGRlxrBnJt7fYMuJ9ffRTQ0dy21F9aNNnZLxBSTOYgatyEmK5NGNYXkmVckXjhw6IiFVKH4uIVWRtKZp01P36stf+92fPRECySm9lSJKJpnhCRpARZCSNj2yN3Z77ovdD5z4oz9wsaRwDSOLiDiITScewGslGixhWzWhI1b9bxrDcKPRdKq6JWLnXlgJErIK0xZiSdzsCklGstUPxFE/ICDKCjCT0kWdW9OQ0flXPBzd+W8ZcL6MjggSua4diWAv/DhPDWiYuS19GHzu4vyqGRUEbSy1KxCrSthR5tKNFJ5XrGFZuBWTgX375FZIuib94yrmMZKnNyEgOZcR+7egnhkYKUxR/aONPZLxrJO3BEFyTkxDLhY1hNXstaAxrfuRjaTasisYPHkizM3GyuCZi5VZbkI62vGHTvS+chYBk7v7hDYUqhZCRDH0knjFSGBmxJn+zX7Xjg+fulPyrJD2LCcR58QaRiYzEsKqX6yaGRcSqtXQQsYqkLUSsglPx8/tQwtwKiJUZTNcjkBGHDAAZyaaMTE/N9X2lkPXx3a97Vn7PVZLdiSzEed3mN4Y1enC//EqlEAVtLPUfEatI28JoR8dFem5jWLkUkIE//MorrXShOzUuMoKMICPh324f1t+9bbSwxfGHz9mjGe8aGf0UU3BFTkIsFyqG1WqGq2rBCB7D8it+8xgWEav24uHSfiFiVSjpqFv9Ra/9ny+ejYBkBN/z7pRkIj8vkBFkBBlJUEYKGL+q5yMbj6jfvFlW38YI4rg4g8hEEjGsuheN4olhEbFqLR1ErCJpCxGriHsq3w4qh+RSQIxZPvsVMoKMICOZkpHJqRWzX6VIlrR147gm+2+WtQ+yM2K5YcQsJx3EsBqJRv17A86G5ZfLRKxcl44cFNeMdsRZqSMgmaD/X3311ZI5v1UxFJuM5KVQRkaQkTT387G3flV/OcQzMRb42NkzWnFoUNJn2Blpy0mr5drErjqJYRnTeQzLV3ezYTlWXBOxcqstSEdibbhg08d/+1oExHGsMXeEKYYiPbciqxWzLCNZ+UjISDL9bodttiJ+Vc/W68q6e+N7JPMX7IwoL74g0hF0uRDbMm3ExGj5CEfoGJaJ76GECRVuRKzcawsRq+TbYj3l7qGEuRMQ03LGAGTEiWoaGUFGWjM5VV7xDxTHDfeh1d0b3y/pA+yLKHdryjGstu81Df6tYDGsQwflV8qZK66JWLnVFkY70m6LyV0MK1cC0vfer58jq01RFEPICDKCjKQmI1/W39wwQVXcgrs33SNr3+9QSVMwOWm1XJwxrGbiUb9sqSqGZTV2YH8mimsiVm61BelwRw6t1Xkb/+fz5yIgzn6Y8p1xVHrICDKCjCQqI8SvgnDPeX8ho/dIKrMzuj3/gkhHlmJYij+GRcQqt8U1ESu3jtPiy5V8PRMkVwJibRRDVMgIMoKMpCgjY1Njs1+jKA7IhzZ9RsYblDTDzuj2uooghtV2Rqum9tFmG53EsEq1Maxy2ZWLPJr6j4hVpG1htMNR6aj99R0IiIP0vfer50mKeHgKGUFGkJFE+3mjL2n70BTVcBgJOfdBeeZmScwalqictLveWrzfhHhmSKAYlmmw7NL3QKyVRg/uS724JmLlVluQDrfksF1TrbHnnPOxF89DQFz7IDbuoaksy0hm7vLISMFlxFhtp9rtgA9u/LaMuV5GR9gZnV48QaSj1XKms21FEsNqJCWqiWGN7t0b34WblHQQsYqkLUSs3DpOrZta+2bjVXLzZfTcCIhVklOUZU1GcviMEWQkdzJipNFJf+03KIY75EMbfyLjXSNpLzuj0+smgu9+pB7Dqv5eSFUM6/AhVdrFsIhY5ba4ZrTDTemwYV81+Ylh5UJAev/VVy+QzDkuVnrICDLiTFMca/Oya8Pqi/rr66apgrvgg+fulPw3SnqWnZGEnLS7nlq8v0ZU2klPmBhW9Wu1MayxA3tjLa6JWLnVFqTDLTls39RAH+TVGz/+3AUIiCOU5DkyMwAygow43KBQzUheRirWMvtVFNz9umfl91wl2Z3sjC6Eoal0RB3DCjDy0VUMy2s8GxYRq9wW10Ss3DpOYSJWgTZnvFzMhpULAbGyDmbikBFkJG8yEmv/PTwzMfstiuCI+PA5ezTjXSOjn7Izwl4bScewFE5GQsewlkZBxg8dUmV2lohVDotrRjvclA4bywexd8jaLBVr+RSQ3n/5lYskvSrLhTIygoxkoxnxtddYPaDtQ7NUvxHykY1H1G/eLKtvszPilJMQ4pJaDOvYd0GsjEa7eCghESu32oJ0uCWHEUWsgjThlef8jxcuREDS/gCeN7SsQ85EoZzAtYaMICMZkREr4lexsHXjuCb7b5a1D7Izgl4AHYhF4NeaLRd3DKtqNqz9e9KTDiJWkbSFiJVbxynqiFWQthjrZz6GlYMIlrmtpjPOjIy0L+CQEWSkIDJyeKZ3/3cofmPiY2fPaMWhQUmfYWcEPfcTjGG1i2hFHcM6fPhYDCuJ+o+IVWRtYbTDTemwSXyQRquz5s6sx7AyLSAr3vvVSyWd1fBGgYwgI8hIVmTkAX3ij+aoemNk63Vl3b3xPZL5KDsjDjkJIS6mTf/T8hdRxbD2xXefYbQjsrYgHW7JYVIRq0CrMzpj4/987hIEJCV8mQBfPs+vjLhT3+ZcRrLU5kzKCPGrhA6c1d0b/4OkD7Av2p23HYhF4NeaLZdcDGukKoaFdLjXFiJWbh2nNCJWgQ6nn+3ZsDIsINZIJuTDB/MlI5H3s8hIhj5Sbh54eGj6jHXfpehNkLs33SNr3+/Q7d/RbsHVGFb9tRQmhnVsFGTiyFHNzc4QsXKoLYx2uCkdqUWsAr3NDGU5hpVZAVnxr75xuaQzu6qckBFkJPMykvmnr9+vrdeVqXYT5p7z/kJG75HEvo9MTkKIi2k18hFAehZFQy3Eo/61qocSShprEsMKLB2MdnTdFqTDLTl0KmIVbAWnn/Px5y9DQBLG9yoRDj1ViQgygowgI0k2hfhVWnxo02dkvEFJM+yMAEV/K7EIHdEKuN22MSyj8DEsb/lDCZGORNtCxMqt4+RqxCpQj+GZzMawsikgW7d6smHjVyGqJmQEGUFGkmjKvumxmX+i2E1TQs59UJ65WdI4O0PhpKOTdUQew2ryc4DZsCaPHlF5diaYeFDQdt0WRjvclA6XI1YB/zhwh7baTNbymWz0wEuXXSnpZYlUTcgIMoKMxNIUY8392j5UocpNmQ9u/LaMuV5GR9gZnYhFh19ajzqGVfUl86bbq4lhGY02GgVhtCOytiAdbslh9iJWgTj13JNevBIBSer88pJ+AAsyEnhzeSmUkZEkruPtVLGO8KGNP5HxrpG0l52hkGIRQjoCbafDGFazdbSIYS0+lBDpiLQtRKzcOk5ZjlgFwff9QWWQ7AnI1q2eZLakXsAhIzHXt1mWkax8pDQbZPZOj878gCLXIT547k7Jf6OkZ9kZUYhFk3W0imRFFcNqOBqyPIY1cXRY5ekpCtoI2sJoh5vSkfmIVbDuZVDbbAkBiZmBfZdeLek0pwo4ZAQZCdvegsuIkbYRv3KQu1/3rPyeqyS7k50RRixieHZINzGsVgKzKCCl+VGQFAe9iFghHRHKYU4jVkE45Zz9v70KAYn73PNd/cY/MoKMICPBe54Ks1+5yofP2aMZ7xoZ/ZSdkYMY1rLRkNrfhZoNC+nosO4kYhXnccp7xCpIW4zJ3mxY2RKQwW0lyd/ifkOREWQEGWnRa7409cl3/Iji1mE+svGI+s2bJX2HnaEOpuBts44kY1gNX1saBZkcHdbc9GQxC9pY605GO5KQjiJErAKev7dfu9X2ICAxMXDcmmsl7+RMfi8AGUFGkJGF82ebZHgKt+ts3Tiuif63ydoH2RlBr48Q4hJkHVHHsBZHPpa+ByJ5Gt2/L55dQsQK6YhQDgscsQry4U88cMIL1yAgce1/q6HsFpwNZCQHhTIygoyE7nR8S/wqK3zs7BmtODQo6TOIRTux6FQ6mi0TQwxrmbSY6L8HQsQqWwVtBoprIlZB3+BnKoaVnep96yM9/Xtmdks6qf0Ryxo2g822yZ1Y1pmVOLWP3fxYbRv04vSnbjmTEZDMnYtGH3jq/5HsHxf088//X9Vpu/jv6te6Xc4uX85W3yeavG79+f8Wfjf/s+pes1WvWV+qzB37z5/Vq6+8Tr0rVuSji7VJvMUWYr+k1Rab5AexbnY3HXDo5ENnnvrdraachV41MyMg/bun39xePhZK3wyOjBhGRuI9pDl8xoiTH6vNeWHsfchHFjFWd2/8D5I+wL5od/7X/yorMaw9nRVKRKxyt18SaU9HTS10xCoIJ+w78bk3ZaW3zFAEy+vgQSvICDKCjLjU5pIv4ldZ5u5N98xLSMEkspVYdCEd7b5wnlgMy9NI0BgWEatsFbQZKK6JWEXZU3mZiWFlQ0De+7Nea+xmBypXZAQZQUY6b/Ozk39166NU8TmQEGv+jSS/cJ899Hc/QiyX6mxYnqZGRzU7NZHb4prRDjelg1msIl/3lo1bd/UhIBHRbw6+xUjHJ1rAISPICDISNZ8nfpUT7tl4r6x+V9JcofdDxyMdUuQxrPr7Q9gYllfSaP0zQYhYIR0RF9dErGLf0gZ7/Ko3IyBRHTejofiKJ2Qk2UI5gWsTGXHyY3nyt1O550lCNt0n422WNFmMD2zCvZZ0DKtlXxsghqX52bBy8NdiIlZuFdeFHe1Iqy0ZeSih+wIyuK3Ps+bWADUsMpKDZ4wgI7mVkd9Mfuodj1G154wPnfuwjLlRMiOF+cxZiGGZ+p8DxrDGxzU7OZ7Jwo3RDqQDOVzYvN38qo/+uh8B6ZL+49bdYKUNyRdOyAgygoxEyOeo1vMqIRu/J+k6SQcK+fldjGE1+7ldDMt4Gtm3N539iHTkorgmYuVEW9b3qO+tCEj3x3Qo/XoQGXFJRtw5pMhIUPyKx+xXeebujY/Jr1wt6YWc20a415yIYdX9f7sY1oF9ye1OZrHKRXFNxMqtthz7Pzsox3FbQN73cL+RvcWtehAZSbtIjvyaR0baL9IdT8/+9c1PUqXnnA+f/7SsuUoyT+f+s2YqhqUm4lG1rFdaHAGZnhjXzETMMSxmscp8W4hYudWW2l1kZTy7+eV//uIKOYzTAtI3U7pJ0jp360FkBBkpiIx085GM7qM6Lwj3bHxB5fLVkor1fZ/MxLBMEympjWJ19FDCGIpIpMO94pqIlVttqZaOmgZarVnTW74BAem0ccZG801+ZAQZQUZSkxHfWGa/KhJ/dv4B2enrJH0/p7YRj3QkEsNqIil1MjISZQyLiFXmi2siVm5Kh21/ZJyeDctdAbnrkQErc3PkBRwy0kZGhIwgI1HKyM7ZT966i6q8YNxz8YgGpm+Q9A+F/PwZj2HNTExoZmIs0cKN0Q6kAzls3pb6iFXABt76uj/dtwoBCUnfwMzNktbGWsAhI83bi4wgI1HIiDF8+byobL14Ukem3yGZzxdXOjIcwwo7GxbSkYvimoiVW21pGrEKxqrZgekbEZCwDbPeUKIFHDKCjCAjkcuIL91PJV5gPnHxnAbOfZekT+TMNuKRjtRiWAujIF5VDCvg90CIWGW+uCZi5aZ02AgaaKx1NoblZsXz3odW9pu+A5JWdXYUIz4pEjnzsoTNYLNtcheCLep5UdtmY/TE1CdvuYAqHCRr9IFdH5L0Jzn6TPP/V3WdLv67+rVul7PLl7NVbbBNXrf+sf8Wlln8ueo1W/+alcqzUmVO8ud01qVXamD12ki6JhvXO6x7p0QW2mJzV0dl+zjZ+Bo42Te94qQd//spE671oE6OgPSZvls6k4+FUpKRkfi9lZGR+A9nlkdGJGuJX8HieWF196YPSPpARs062J8t8hDD8qpnw9rbVSdJxCrF9nT0MhGrpNvSZcQqCCtnVkze7GIP6qSAGKuIHqCSZRnJWMGJjCAjde21JWa/gjru3nSPrPk3kvz8uFXOYlimKoa1fy8RqxwU10Ss3JQOm1ADjXVzNiz3BOTfPrJaRm9Luuh0rx7M8F+/kZHCy4iVfj5z7y2/puKGZdyz8V5Z/a6kudx/1kzNhqUqATn23+zUlKbHRmKq9RjtQDqKI4cdzmIVVUd086s++uu1CEgb+sozt0qK+emNyAgygozE2rEYEb+CFhKy6T4Zb7OkyYwbRkCZyG4Ma+TA3mJLh0TEKkv7pXgRqyBtGehRj3MxLOcExBiT8FARMoKMICNR4xuP2a+gNR8692EZc6NkRjL/WXIcwxpdiGF1VXdmOGLFaEdm90va0mHTbGDdZl18KKFbAvKHX1ojKcVHxyMjictIltqMjATd9j/PfOJtv6HChvYSsvF7kq6TdCC3nzGrMaz5BxPOTk9ramyEiBXSwYhUi7akG7Fqf5yMdNMr7/3NOgSkCQN9/ZslDWSh6ERGImqzQUaSk5GE9pC1xK8gOHdvfEx+5WpJL2TUMALKRNYeSmgCxbAyLx0SEass7RciVp3ul/7+aXMrAtJsP1ozKCeJuIBDRpCRVA5pIueFtTLMfgXh+PD5T8uaqyTzdGY/g9MxrPprP2AMy/N0LIa1p01HRsQqzrYQsXJTOlyKWAV6i3GrxnZHQO56ZEDSm7NccCIjyAgyoh9Pf+rm56moITT3bHxB5fLVkh7L3WdLPYZV/c/ws2HNzcxoZmKss16NghbpSKC4jrstrkesAvKWl//5iysc2bPuCEh//+xVklmZuYfxISPICDKytCbL6Ad0wZ+df0B2+jpJ38+YYQSUCRdiWKajGNbEkUMiYhV/W4hYudWWDEWsgjCwtuRfgYAsb8pbslsoIyPICDIiyarkf4EqGrrinotHNDB9g6R/yFzbMxHDavHeFjGs8SMHKWhjagsRKzelI2sRqyBUjP8WBGT53n5L47oHGUnu6evISDLnRgJ9cToy8sOpT9yS0S8Sg1NsvXhSA2azZD6fm8/kYgzLmMAxrMmRYVnfp6BFOpwtrrtpS04iVkHu6m9FQKoZ3NYno03t656Cy0giHx8ZceG8yKKMWKP8FIvggIRsnNXAue+S9Ins9PdBZMKhGFazP47Ux7A8T75vNTs5TkHbZVuIWLnVlpxFrIL0U+dddO/PehGQefo2rHullXpsqLono8+/QEaQkXzKiF+qVIhfQcQSYnzdvfFfS7onO11QRmNYxrR4KOGxGNbM5BQFbQdtIWLlpnTkMWIVYMM9k9MbfgcBWejmSubVgc7XhnVPhh/Gh4wgIx3KiDuHdHEl35v8q3fsoWKGGK4Lq7s3fUDSB+RO+RuhnIRYLs4YVrP1LAiIV9Ls5AQFLdLhcHHdvC1FiVgFLLpfjYAsHZSzQx8rZAQZKbCMRN6PdXlIrcTsVxAvd2+6R9b8G0m+29dtEJlIOobVSDZaxLBqRkOW/j07PUVBS8QqU3JYvIhVkG7KIiBLx8ee0NUxREaQEWQkTRnxS17pASpkiJ17Nt4rq9+VNOf2JetaDEvhYljLxOXYKEhlNsHdzmhH5vdL2tJRzIhVoMYdj4AsHievP7JzHhlBRjqSESEjnR/S705+4sa9VMeQjIRsuk/G2yxpMpPtz1oMq+pZIDbuThLpcH+/SESssnKcIqq5cy0gntQfy/HOxUxayEii+xgZCb05a7WNqhgS5UPnPixjbpTMiJvXZRCZyEgMq2o5a2NKvxGxys5+IWKVSemoAwFZ6vNsf6znQW6m9UVGkBHnZKTS29vzRSpiSF5CNn5P0nWSDrh5SToUw1r4d5cxLD/KIovRjszvl7Slg4hVx20fQEDm8a2mErtukBFkBBmJsu/8zvj/vOGAANLg7o2Pya9cLSlbD8BMOobV7LWQMSyv1IN05F06JCJWWTlOnXY/1joRX3VjGl5j96dyziAjyAgy0l1/aohfQcp8+PynZc1VknnaresuiExkK4bV09eXm4K2s5eJWCXdFiJWMXwkY5z4o6EbX0K33v7UzyVkBBlBRsL2s3O9vTPEryB97tn4gsrlqyU95tYll68YVqkvRFqa0Y7M75e0pYOIVWzd0n4X2uHGl9BjHgFBRrIqIxnbx8WTkW+NfXzLYapfcII/O/+A7PR1kr6flSog3HJtYlct5aTVgwarfm4Tw+rp60U6sl7oS0SssnKc4vqY1mcEZHFnGPPrtCs3ZMRFGcnwPi6CjFgePgiOcc/FIxqYvkHSP7hxXQWRjqDLhdiWaSMmRh3FsPoGVmSmoO3sZSJWSbeFiFUKu9/XrxCQeWb/8vpfymrYlaITGUFGkJG2MjLXZ0tfouIF59h68aQGzGbJfN6NSyrlGFbb9waPYa1Yvcr5gjb8y0Ss0pIOIlapMPL08Ct+jYAsdWzWGvNzF4tOZAQZQUYaNvbro5+68QjVLrgpIRtn9ZtdvyvpE25fYg7EsBb6pDYxrJ7eXvX29iMdWShoiVi5L2TpHY+faqvxXWiK58o+MbI/db3oREaQkVhkJIPnhRGzX4HjbB+q6O6N/1rSPeleN0GkI8UYVs3vmsewVqxZnYniOpWIFaMdTdtCxMqxO7nXrtYuoIB4nvlGlopOZAQZiazNJnMyMjNt+r5MVw4ZOFet7t70AUkfSLUEiSKG1WhGq6brajHy0TKGVdd/Vo2GrFq7ztnimoiVm9JBxMpBKvqGK01xRkCmDx75J0n7slh0FktGsuIKyEiMfF2feMsIPTlkhrs33SNr/o0k373LvtuRDhNife1iWMvFY2G5tRvWF1c6XCtoiVi5L2Rusu8Xp73iBwhIPduHKtaaL2S96Gx67udGRmJoLzKSKRmxVn9DPw6Z456N98rqdyXNJd9nBpEOd2NYq9asUk9vrxPFNRErt9pCxCpTbNOQqSAgDc+jSoS58nSLTouMICP5lJFDsyPjxK8goxKy6T4Zb7OkyeQv4+zGsNYetyHVIpKIlZvSQcQqW3iy97vVHoco3/vW70nmibwVncgIMpIbGbH6jLYPzdKVQ2b50LkPy5gbJeNOjDDOGJZpJz2tY1heqaR1xx2Xb+lwraAlYuW+kGWPJ5563yucekir59b+MVbS3ZkrlJERZKQYMjLneZWP0o9D9iVk4/fkmTdJOpDYtRpIOlotZzrfVtNtto9hHX/iCfJKpcSKayJWbrWFiFU+sNZ+UMY4tRc913bS7OEj2yUl9JCULMtIhorkuGQkp+eFwzLy11OfuOUFunLIBR889+fyK1dLSu6cjuK7HwnGsDzP03EnnRB7EUnEyk3pIGKVD4z0m6dPfcUXXGuXcwKi7UMVK/vBXBTKscoI0/omswuQkXkmvXLpv9KVQ6748PlPy5qrJPN0+petCfla/DGsDScer1JPT/alw7WCloiV+0KWI6zVf3Xpy+fuCoikuVN++Flj9P30aj5kBBlBRurOyXumPn3Di3TlkDvu2fiCyuWrJT0Wf5/XgVgEfq3ZcgFGPhrEsHp6e3XiySdFXlwTsXKrLUSs8o2R+f4v//h3Puti25wUEG3d6lvf/JGk2fRrPmQEGSm8jDwzu3r8T+nKIbf82fkHZKevkxT/lzQTj2EpnIzML3Pq6afKKwUsEYhYZVI6nBjtgDiZ9WT+yLXvfrgtIJJm773+KRl7j1s1HzKCjBRORnxjvT/UR4am6Msh19xz8YgGpm+Q9A/pXZZuxLDWrF+tNWvXZEc6XCtoMxOxYrQjz1hr7tn1x2c+5Wr7PJd33uzB4f9bsj90s+ZDRpCRvMlIg3rG6kPT/+vG79GVQyHYevGkBsxmyXw+vv6hA7EI/Fqz5YLHsHp7e3Xqaad2XFwTsXKrLUhHYflRxcz9/1xuoNMCou1Ds71z3hZJL7pd87nx9HUbuGnICDLSor1LMvKN6ZHx/4t+HIolIRtn9ZtdvyvpE/FdagnGsNpFtKpeN8bTy888VT29pVBFJBErN6WDWawKy16/3DP4zB+fPeN6xeE8vX/0jYuNZ74naSD0BZBqb+DowbXutjn1/WyLcW4EOHt+MTM7dYX++p3D9OVQTKzRB3Z9SNKfxHL926p+YPHf1a81WK7pa7bB+upfs1WbsMvfa6xedtpJWrd+TaBuyibdx7nUbTrYFutCAxEOF5j2Za/51R+/8qeuN9TLwt6cu/etP5PR70pmLpQzpfoH6PT/+t30bx+5eeBhDG1mZESSfuv5/luRDyg2xuruTR+Q9IFoS6uQMazQEa2A261b70knHX9MPohYZaotRKygilljzbuyIB+d9mKp0f9vv32LtXa7pP6ulJuRkZBNY2SkQCMjL6pi3jTzqRufoS8HmOdPdv2RjP1LRfZHuzajIA1HRBost/hz3XI1y9QtZ1W7HWN18knH6fjj1nXYM2Wxr81gW6oPuQuNRDjckw+jO37xvlc8mJUGm6zt4YF//c1rfWMekrQ6kisCGUFGkJGFs+EXnko3Tn3iLTztHKCe/+PJLbLmbyStjF1AmolFzbIRxLBkdcpJx+m449amKx2IB9IB3TAp2Xf+8o9f+Y0sNdpkcU/3/rvvXGp8f5ukMyK9UpARZMS5w5bYPv72TMUM6VM3HqEvB2jCn+w8X0YPSTo9kms7qFi0kpWWArIkGrXLSZ4nnXbqCVq7ZmV64oF0tG2LRTqgNS94voaeev8rfpK1hntZ3NtzH3/TT2Y9XShjH25dTof0qwJP61t1m+I7I04dttg3YI1098zRsRuQD4A23LPpCZXKl0v6TjSXdwTf72g5G1bj5fr7e/WKM09dlA9msXJIPHhQIAQ+RPbbc72VS7IoHx30dM7tftP3b77zXyT7f0laEYvK2/RPMWdPEkZGUjxskWzgOWP0r6bvvenbdOUAIb39A0/9K8l+RB1HsoLGsOZ/jiiGtWH9ap1y4nrJM8l2YIx2tD4NXGggwpEVpoz0//nF+37nw64+5bwAAnKMgX/9yO/4XuXPZfXOWK80ZAQZyYeMzMjoYzOT3lb9zQ0T9OUAHfJfnniNvNKfSXp7x9duQjGsgYFenXrieg2s6MtR35f9thCxgpB/+/iK9fTHT7/vd57L+kcxeTou/X/0rbdYT/dIen3sVyAygoxkT0Z8I21TqfJ/Tv+Ptz9LTw4QER946nrJ3i3Zizq6XuOaDUtSb4+nE49fo3VrVjbptJGOpNvDaAd0wGOS/UDWvmheGAFZYOBff/NaX+b9MrpFob/ngowgI7mTkQlZ+zfyvf/G9LoAMfInu94oY/9YMlskW+paQJoKiVpIx7HlBvp7ddz6VVq7dkBmWQ9NxArpgAzgS+Y7kv/RX77vFV/JctyqMAKyQP97v32W7dGdsvYdki4O/3mRkUhPqNzISCZu3nOS/slY+7fTldkv6K/eMUZfDpAQH/jF70iVOyTdobYj8tHFsPp6e7RmdZ/WrhrQwEBv/B0N0tG2LUSsIPwRM49a+V/qKfn37fp3r8rtHw1NUY7oyn//jdPmKt7bPekN1uh8WW1UoC+uIyPISCZkZELSYzJ61Frz3dny9LeRDgAH+D+fOlNl/xoZXSXpCkmvktS37IIPGa8yMurrNerv69WK/h6tXtWnvt4S0uFAexjtgBBMS9olqx0y+olf7vnKr/7j6buL8MFNYQ/54LZS/wknvMrYyqm+MeuttM6zWmeNCSAlFS6ZKPFDv1BojNWEMWbW9+3hUsnbJ838duqUR/dq61Z2GEAG7j16zWvOULn3LMlukOw6WbtKsiua9X1exZZ6eksDvT1moFQyK3q90qr+fu9EyfQ0L0ArYUf8l5b3G1Wvvqmpbm3V8rbBNu2x5a1f8cK3JevFdUoNzPodwHi2Z82Je1YPlJ7IacU960vDxpoRz5qRsufvPu3wb5/57tbrynSMAAAAAAAAAAAAAAAAAAAAAAAAAAAAAAAAAAAAAAAAAAAAAAAAAAAAAAAAAAAAAAAAAAAAAAAAAAAAAAAAAAAAAAAAAAAAAAAAAAAAAAAAAAAAAAAAAAAAAAAAAAAAAAAAAAAAAAAAAAAAAAAAAAAAAAAAAAAAAAAAAAAAAAAAAAAAAAAAAAAAAAAAAAAAAAAAAAAAAAAAAAAAAAAAAAAAAAAAAAAAAAAAAAAAAAAAAAAAAAAAAAAAAAAAAAAAAAAAAAAAAAAAAAAAAAAAAAAAAAAAAAAAAAAAAAAAAAAAAAAAAAAAAAAAAAAAAAAAAAAAAAAAAAAAAAAAAAAAAAAAAAAAAAAAAAAAAAAAAAAAAAAAAAAAAAAAAAAAAAAAAAAAAAAAAAAAAAAAAAAAAAAAAAAAAAAAAAAAAAAAAAAAAAAAAAAAAAAAAAAAAAAAAFAs/v/SSnxkCg/4qQAAACV0RVh0ZGF0ZTpjcmVhdGUAMjAyMS0xMC0wOFQyMDoyNzoxNSswMDowMMiM7xcAAAAldEVYdGRhdGU6bW9kaWZ5ADIwMjEtMTAtMDhUMjA6Mjc6MTUrMDA6MDC50VerAAAAAElFTkSuQmCC;" parent="1" vertex="1">
          <mxGeometry x="750" y="505" width="45" height="45" as="geometry" />
        </mxCell>
        <mxCell id="DmJEvaMp0UlZqBuKeToC-30" value="&lt;i&gt;Hosted with standard models&lt;br&gt;GPT 3.5 turbo&lt;br&gt;GPT 3.5 turbo 16k&lt;/i&gt;" style="text;html=1;align=center;verticalAlign=middle;resizable=0;points=[];autosize=1;strokeColor=none;fillColor=none;" parent="1" vertex="1">
          <mxGeometry x="528" y="492" width="180" height="60" as="geometry" />
        </mxCell>
      </root>
    </mxGraphModel>
  </diagram>
</mxfile>
